<svg xmlns="http://www.w3.org/2000/svg" width="20.301" height="17.953" viewBox="0 0 20.301 17.953"><defs><style>.a{fill:#aeada9;stroke:#fff;stroke-width:0.3px;}</style></defs><path class="a" d="M14.577,1.917A5.334,5.334,0,0,0,10,4.654,5.334,5.334,0,0,0,5.414,1.917,5.65,5.65,0,0,0,0,7.765c0,3.772,3.987,7.891,7.33,10.684a4.157,4.157,0,0,0,5.331,0c3.344-2.793,7.33-6.913,7.33-10.684a5.65,5.65,0,0,0-5.414-5.848ZM11.59,17.181a2.484,2.484,0,0,1-3.19,0C4.12,13.6,1.665,10.173,1.665,7.765A3.988,3.988,0,0,1,5.414,3.576,3.988,3.988,0,0,1,9.162,7.765a.833.833,0,0,0,1.666,0,3.988,3.988,0,0,1,3.748-4.189,3.988,3.988,0,0,1,3.748,4.189c0,2.408-2.455,5.839-6.735,9.412Z" transform="translate(0.155 -1.767)"/></svg>