<svg xmlns="http://www.w3.org/2000/svg" width="18.004" height="12.764" viewBox="0 0 18.004 12.764"><defs><style>.a{fill:#fff;}</style></defs><g transform="translate(0 -0.19)"><path class="a" d="M20.312,4.155a1.046,1.046,0,0,0-.989.018A.347.347,0,0,0,19.3,4.8c2.5,1.582,2.5,4.142,0,5.724a.367.367,0,0,0-.22.448.649.649,0,0,0,.525.332,1.009,1.009,0,0,0,.711-.138C23.372,9.228,23.372,6.092,20.312,4.155Z" transform="translate(-4.604 -1.077)"/><path class="a" d="M17.615,7.211A.72.72,0,1,0,16.6,8.229a3.359,3.359,0,0,1,0,4.743.72.72,0,1,0,1.018,1.018,4.8,4.8,0,0,0,0-6.78Z" transform="translate(-4.46 -4.029)"/><path class="a" d="M9.952.2a9.356,9.356,0,0,0-5.438,2.59H3.6C1.613,2.791,0,4,0,5.491V7.653c0,1.492,1.613,2.7,3.6,2.7h.914a9.353,9.353,0,0,0,5.437,2.59.9.9,0,0,0,.591-.116.5.5,0,0,0,.259-.415V.731a.5.5,0,0,0-.259-.415A.9.9,0,0,0,9.952.2Z" transform="translate(0 0)"/></g></svg>