<svg xmlns="http://www.w3.org/2000/svg" width="16.004" height="16.004" viewBox="0 0 16.004 16.004"><defs><style>.a{fill:#fff;}</style></defs><path class="a" d="M20.168,15.5a1,1,0,0,0-1,1v1A1.667,1.667,0,0,1,17.5,19.168h-1a1,1,0,1,0,0,2h1A3.672,3.672,0,0,0,21.168,17.5v-1A1,1,0,0,0,20.168,15.5Z" transform="translate(-5.164 -5.164)"/><path class="a" d="M4.668,0h-1A3.672,3.672,0,0,0,0,3.668v1a1,1,0,1,0,2,0v-1A1.667,1.667,0,0,1,3.668,2h1a1,1,0,1,0,0-2Z" transform="translate(0)"/><path class="a" d="M4.668,19.168h-1A1.667,1.667,0,0,1,2,17.5v-1a1,1,0,0,0-2,0v1a3.672,3.672,0,0,0,3.668,3.668h1a1,1,0,1,0,0-2Z" transform="translate(0 -5.164)"/><path class="a" d="M17.5,0h-1a1,1,0,1,0,0,2h1a1.667,1.667,0,0,1,1.667,1.667v1a1,1,0,1,0,2,0v-1A3.672,3.672,0,0,0,17.5,0Z" transform="translate(-5.164)"/></svg>