<svg xmlns="http://www.w3.org/2000/svg" width="16.017" height="16" viewBox="0 0 16.017 16"><defs><style>.a{fill:#aeada9;}</style></defs><path class="a" d="M12.879,9.777a3.106,3.106,0,0,0-2.559,1.349L5.981,9.167a3.049,3.049,0,0,0,0-2.325l4.333-1.969a3.106,3.106,0,1,0-.551-1.762,3.088,3.088,0,0,0,.053.524L5.213,5.728a3.112,3.112,0,1,0-.01,4.551l4.618,2.085a3.157,3.157,0,0,0-.053.523,3.111,3.111,0,1,0,3.111-3.11Zm0-8.444A1.778,1.778,0,1,1,11.1,3.111a1.778,1.778,0,0,1,1.777-1.778ZM3.1,9.777A1.778,1.778,0,1,1,4.879,8,1.778,1.778,0,0,1,3.1,9.777Zm9.777,4.888a1.778,1.778,0,1,1,1.778-1.778,1.778,1.778,0,0,1-1.778,1.778Z" transform="translate(0.027 0.001)"/></svg>