<svg xmlns="http://www.w3.org/2000/svg" width="318.106" height="318.106" viewBox="0 0 318.106 318.106"><defs><style>.a{opacity:0.2;}.b{fill:#f7db00;}</style></defs><g class="a" transform="translate(186.401 318.106) rotate(-135)"><g transform="translate(0)"><path class="b" d="M35.431,186.259,44.8,173.9l-18.98,4.842L48.24,165.115l-17.4,3.314L43.25,154.061,23.966,156.5l9.405-11.919-16.056,3.362,5.541-7.573L9.389,147.944l4.386-6.864L1.5,144.581,27.36,126.444,4.622,132.037,14.961,121.15,0,122.793,219.954,0l-8.018,11.956,14.031-1.294-15.855,14.9,18.7-3.686L222.14,31.953l19.48-5.017L230.92,40,255.385,29.97,245.154,41.446h13.712l-14.45,15.246,19.2-8.929L241.62,65.275l13.764-1.81Z"/></g></g></svg>