<svg xmlns="http://www.w3.org/2000/svg" width="306.715" height="306.715" viewBox="0 0 306.715 306.715"><defs><style>.a{opacity:0.2;}.b{fill:#b98eff;}</style></defs><g class="a" transform="translate(179.726 306.715) rotate(-135)"><path class="b" d="M34.162,179.589,43.2,167.671l-18.3,4.669L46.513,159.2l-16.775,3.2L41.7,148.544,23.108,150.9,32.177,139.4,16.7,142.646l5.342-7.3-12.985,7.3,4.229-6.618L1.443,139.4l24.937-17.487L4.456,127.308l9.969-10.5L0,118.4,212.077,0l-7.73,11.528,13.528-1.248L202.588,24.643l18.031-3.554-6.434,9.721,18.782-4.837L222.651,38.565,246.239,28.9l-9.865,11.065H249.6l-13.933,14.7,18.509-8.609-21.2,16.885,13.271-1.745Z"/></g></svg>