<svg xmlns="http://www.w3.org/2000/svg" width="311.375" height="311.375" viewBox="0 0 311.375 311.375"><defs><style>.a{fill:#eae5cc;}</style></defs><g transform="translate(182.458 311.375) rotate(-135)"><path class="a" d="M34.681,182.318l9.173-12.1-18.579,4.739,21.944-13.337-17.03,3.244L42.335,150.8l-18.876,2.388,9.206-11.667-15.716,3.291,5.423-7.413L9.19,144.813l4.293-6.719L1.465,141.522l25.316-17.753L4.524,129.243l10.12-10.656L0,120.2,215.3,0l-7.848,11.7,13.734-1.267-15.52,14.58,18.305-3.608-6.531,9.868,19.068-4.911L226.034,39.152l23.947-9.816L239.966,40.569h13.422L239.244,55.493l18.79-8.74L236.507,63.894l13.473-1.772Z"/></g></svg>