<svg xmlns="http://www.w3.org/2000/svg" width="179.677" height="162.792" viewBox="0 0 179.677 162.792"><defs><style>.a{fill:#f9f8f3;}</style></defs><g transform="matrix(-0.875, -0.485, 0.485, -0.875, -1279.048, 2833.774)"><g transform="translate(63.316 3018.782)"><path class="a" d="M2382.519,1243.817l5.248-6.922-10.629,2.711,12.554-7.63-9.743,1.856,6.948-8.046-10.8,1.366,5.267-6.674-8.991,1.883,3.1-4.241-7.542,4.241,2.456-3.844-6.875,1.961L2378,1210.321l-12.733,3.132,5.79-6.1-8.378.92,123.171-68.762-4.49,6.7,7.857-.725-8.879,8.341,10.472-2.064-3.736,5.646,10.908-2.809-5.992,7.314,13.7-5.615-5.729,6.426h7.679l-8.092,8.538,10.75-5-12.315,9.806,7.708-1.013Z" transform="translate(-2362.678 -1139.515)"/></g></g></svg>