<svg xmlns="http://www.w3.org/2000/svg" width="315.18" height="315.18" viewBox="0 0 315.18 315.18"><defs><style>.a{fill:#eaffd0;}</style></defs><g transform="translate(184.687 315.18) rotate(-135)"><g transform="translate(0)"><path class="a" d="M35.1,184.545,44.39,172.3l-18.806,4.8L47.8,163.6,30.558,166.88l12.294-14.236-19.107,2.417,9.319-11.81-15.908,3.332,5.49-7.5L9.3,146.583l4.346-6.8L1.483,143.251l25.625-17.97L4.579,130.822l10.244-10.786L0,121.664,217.93,0l-7.944,11.846,13.9-1.282L208.179,25.323l18.529-3.652L220.1,31.66l19.3-4.971L228.8,39.63l24.239-9.935L242.9,41.065h13.586L242.167,56.171l19.02-8.847L239.4,64.675l13.638-1.793Z"/></g></g></svg>