<svg xmlns="http://www.w3.org/2000/svg" width="520.713" height="536.301" viewBox="0 0 520.713 536.301"><defs><style>.a{opacity:0.6;}.b{fill:#f7db00;}</style></defs><g class="a" transform="matrix(0.819, 0.574, -0.574, 0.819, 813.13, -924.647)"><path class="b" d="M2411.423,1395.767l12.893-17.006-26.113,6.661,30.843-18.745-23.936,4.559,17.072-19.768-26.531,3.356,12.94-16.4-22.089,4.626,7.622-10.419-18.528,10.419,6.034-9.444-16.892,4.818,35.583-24.953-31.283,7.694,14.224-14.977-20.583,2.26,302.609-168.937-11.031,16.449,19.3-1.78-21.813,20.493,25.729-5.071-9.18,13.87,26.8-6.9-14.721,17.97,33.658-13.8-14.076,15.788h18.865l-19.881,20.976,26.41-12.284-30.256,24.093,18.937-2.49Z" transform="translate(-2378)"/><path class="b" d="M2411.423,1395.767l12.893-17.006-26.113,6.661,30.843-18.745-23.936,4.559,17.072-19.768-26.531,3.356,12.94-16.4-22.089,4.626,7.622-10.419-18.528,10.419,6.034-9.444-16.892,4.818,35.583-24.953-31.283,7.694,14.224-14.977-20.583,2.26,302.609-168.937-11.031,16.449,19.3-1.78-21.813,20.493,25.729-5.071-9.18,13.87,26.8-6.9-14.721,17.97,33.658-13.8-14.076,15.788h18.865l-19.881,20.976,26.41-12.284-30.256,24.093,18.937-2.49Z" transform="translate(-2247.319 53)"/></g></svg>