<svg xmlns="http://www.w3.org/2000/svg" width="375.814" height="358.802" viewBox="0 0 375.814 358.802"><defs><style>.a,.d{fill:#e3493d;}.b{fill:#fff;}.c,.d{fill-rule:evenodd;}</style></defs><g transform="translate(-169.333 -1324.93)"><g transform="translate(1159.05 530.006) rotate(45)"><path class="a" d="M2400.254,1337.052l9.939-13.109-20.13,5.135,23.776-14.45-18.452,3.515,13.16-15.238-20.452,2.587,9.975-12.641-17.028,3.566,5.876-8.031-14.283,8.031,4.651-7.28-13.021,3.714,27.429-19.236-24.116,5.932L2378.545,1268l-15.866,1.742,233.273-130.229-8.5,12.68,14.881-1.372-16.815,15.8,19.833-3.909-7.076,10.692,20.659-5.321-11.348,13.852,25.946-10.635-10.851,12.171h14.543l-15.326,16.17,20.359-9.47-23.323,18.573,14.6-1.92Z" transform="translate(-2374.464 -3.536)"/><path class="a" d="M2393.408,1301.062l8.128-10.721-16.462,4.2,19.444-11.817-15.09,2.874,10.762-12.462-16.726,2.116,8.157-10.338-13.925,2.916,4.805-6.568-11.68,6.568,3.8-5.953-10.649,3.037,22.432-15.731-19.722,4.851,8.968-9.442-12.976,1.425,190.772-106.5-6.954,10.37,12.17-1.122-13.752,12.919,16.22-3.2-5.787,8.744,16.9-4.351-9.28,11.329,21.219-8.7-8.874,9.953H2587.2l-12.534,13.223,16.65-7.744-19.074,15.189,11.938-1.57Z" transform="translate(-2361.025 100.263)"/></g><g transform="translate(-417.07 748.61)"><path class="b" d="M646.879,710.5l9.282-37.39,65.866-.545L738.564,682.7,785.3,672.569l-17.336,45.484L791.2,743l-4.576,26.4-97.756,1.21-34.61,23.435-7.38-22.576-25.053-4.848,22.685-43.546Z" transform="translate(0 -12.927)"/><path d="M663.432,693.951l12.908-37.39,62.24-4.171,16.537,13.759,46.732-10.133L784.513,701.5l23.241,24.951-7.477,29.66-101.382-1.329L670.086,773.5l-6.654-18.588-21.427-4.848,17.245-39.195Z" transform="translate(-12.927)"/><g transform="translate(637.597 661.629)"><g transform="translate(0 1.572)"><path d="M24.129,96.982h0a3.5,3.5,0,0,0-1.962-.992l-.048-.014q-.252-.753-.5-1.507a6.2,6.2,0,0,0,1.825.3c2.215,0,3.708-1.435,5.152-2.822.346-.332.7-.676,1.063-.991a55.2,55.2,0,0,0,4.59-4.487A46.88,46.88,0,0,0,38.1,81.609a50.075,50.075,0,0,0,3.277-5.46,66.189,66.189,0,0,0,2.847-6.3h-1a76.575,76.575,0,0,1-6.441,8.177,49.241,49.241,0,0,1-4.221,4.258,8.818,8.818,0,0,1-3.408,2.138,5.932,5.932,0,0,0-.613-.608,2.735,2.735,0,0,1-.895-1.4,5.3,5.3,0,0,1-.539-2.888,11.91,11.91,0,0,1,.539-3.142A83.323,83.323,0,0,1,35.184,60.3h2.01c.21.3.393.523.554.723a3.433,3.433,0,0,1,.691,1.122,7.713,7.713,0,0,1,.263,2.174,13.611,13.611,0,0,0-3.217,3.305,28.2,28.2,0,0,0-2.683,4.7,39.369,39.369,0,0,0-3.145,10.583h.5a45.451,45.451,0,0,1,7.992-9.04c1.284-1.2,2.612-2.433,3.883-3.8a33.759,33.759,0,0,0,3.7-4.744l1.507.5c.144.268.259.456.36.621a4.189,4.189,0,0,1,.644,1.891c.4.756.273,1.929-.4,3.584a36.435,36.435,0,0,1-2.137,4.158c-.411.721-.766,1.342-.984,1.805-.8,1.687-1.881,3.915-3.211,6.192a39.642,39.642,0,0,1-4.372,6.2,21.825,21.825,0,0,1-5.731,4.776,15.571,15.571,0,0,1-3.437,1.41A14.831,14.831,0,0,1,24.129,96.982Zm5.025-3.015-.5,1A.216.216,0,0,0,28.76,95c.316,0,.853-.517,1.174-.826a2.523,2.523,0,0,1,.225-.2H29.154Zm4.522-4.02-3.015,3.517a.281.281,0,0,0,.1.019c.329,0,.939-.453,1.63-1.212a6.648,6.648,0,0,0,1.313-1.927C33.774,90.142,33.763,90.008,33.676,89.947Zm-.5-1h0l-.5,1c.48-.386.582-.65.582-.8a.263.263,0,0,0-.079-.2ZM20.109,89.947H19.1v-.5a2.079,2.079,0,0,0-.7-.283c-.022,0-.022,0-.023-.022a1.722,1.722,0,0,0-.283-.7,5.047,5.047,0,0,1-.762-2.425,10.691,10.691,0,0,1,.21-2.806A31.483,31.483,0,0,1,19.185,78c.167-.433.311-.808.421-1.122.634-1.809,1.125-3.554,1.6-5.241a58.29,58.29,0,0,1,2.42-7.321c.5-1.172,1.09-2.34,1.716-3.576a31.573,31.573,0,0,0,3.309-8.484h-.5c-.633.894-.782,1.028-1.133,1.028-.076,0-.161-.007-.26-.014h-.01l-.1-.008-.153-.153-.349-.349a24.128,24.128,0,0,0,3.417-2.934l.005,0c.207-.2.4-.39.6-.578a4.949,4.949,0,0,1,3.517,2.513c.6.958.6,2.281-.015,4.042a28.389,28.389,0,0,1-2.1,4.331c-.365.652-.68,1.215-.9,1.677-2.191,4.656-4.073,9.069-5.752,13.493-1.852,4.879-3.422,9.67-4.8,14.647Zm36.445-1.379h0a2.089,2.089,0,0,1-.768-.129,5.407,5.407,0,0,1-.5-3.012v0c.416-.24.842-.494,1.255-.741a35.17,35.17,0,0,1,3.794-2.058,14.354,14.354,0,0,1,4.5-1.221,34.356,34.356,0,0,1,2.73-10.8c1.461-3.662,3.28-7.262,4.885-10.439.7-1.385,1.361-2.693,1.932-3.887h-1A26.9,26.9,0,0,1,68.339,59.2a39,39,0,0,1-5.517,2.1V58.289a51.2,51.2,0,0,1,5.724-3.2,42.7,42.7,0,0,1,6.16-2.371A51.139,51.139,0,0,1,89.5,50.737c.481,0,.973.005,1.463.015a12.529,12.529,0,0,0,2.01,2.513v1H91.966c-.893-1.066-2.778-1.29-4.2-1.29a19.082,19.082,0,0,0-5.511.887c-1.777.562-3,1.259-3.352,1.911a3.462,3.462,0,0,1-.43,2.594,27.324,27.324,0,0,1-1.712,3c-.335.533-.65,1.034-.873,1.443-.45.823-.923,1.656-1.423,2.539C71.888,69.89,68.97,75.033,68.349,80.4h.5a4.1,4.1,0,0,1,2.362-.629,15.6,15.6,0,0,1,4.4.9l0,0c.279.087.542.169.768.233v2.01a3.1,3.1,0,0,1-.169,2.382c-.108.337-.23.719-.333,1.136h-1v-1c.141-.185.262-.33.36-.446.364-.433.43-.511.143-1.062a4.791,4.791,0,0,0-2.807-.788,13.184,13.184,0,0,0-4.2.85c-1.495.515-3.038,1.2-4.483,1.87l-.935.434C60.435,87.458,58.049,88.568,56.555,88.568ZM81.916,51.254h0c.1.053.194.1.265.139a1.172,1.172,0,0,0,.489.195,1.2,1.2,0,0,0,.5-.2l.253-.133Zm31.657,37.185h-.5c-.091-.071-.154-.124-.2-.162a.6.6,0,0,0-.3-.165c-.1-.031-.243-.078-.507-.177a14.979,14.979,0,0,1-1.231-7.859,52.929,52.929,0,0,1,1.455-8.036c.092-.391.188-.8.279-1.19h-1c-.674,1.06-2.878,4.112-5.265,7.083-1.291,1.607-2.422,2.927-3.364,3.925a8.774,8.774,0,0,1-2.426,2.057,7.189,7.189,0,0,0-1.606-.832c-.142-.06-.277-.117-.4-.173l-.064-.16a12.116,12.116,0,0,1-.941-3.357,35.853,35.853,0,0,0,2.8-6.176,32.838,32.838,0,0,1,3.62-7.519,9.908,9.908,0,0,1,2.764-2.65,8.462,8.462,0,0,1,3.879-1.242c.47.456.934.847,1.383,1.225a11.8,11.8,0,0,1,2.637,2.8h.5c.91-3.722,3.195-6.977,5.4-10.125.954-1.359,1.854-2.642,2.636-3.944,1.67.376,2.362.646,3.015,2.01a4.114,4.114,0,0,1,.5,2.374l.006.139a21.73,21.73,0,0,0-5.024,5.421,50.117,50.117,0,0,0-4.657,8.415,47.44,47.44,0,0,0-3.083,9.537,23.214,23.214,0,0,0-.3,8.787Zm-1.507-23.115h0a1.8,1.8,0,0,1-1.034.415c-.125.022-.28.05-.473.088-1.083,1.417-2.255,2.741-3.389,4.022a52.827,52.827,0,0,0-4.463,5.53,24,24,0,0,0-1.834,3.229,22.132,22.132,0,0,0-1.369,3.8h.5a57.683,57.683,0,0,1,4-5.515,67.4,67.4,0,0,1,4.54-5.037,21.051,21.051,0,0,1,1.934-1.634c1.443-1.127,2.935-2.292,3.594-3.893-.287-.156-.474-.276-.64-.382a4.689,4.689,0,0,0-1.37-.623Zm2.513,3.518h0q-.2.593-.4,1.186l-.107.322h.5v-.5c.077-.1.14-.174.191-.236.206-.252.206-.252.115-.33a1.056,1.056,0,0,1-.306-.439ZM92.971,86.932H91.966a12.574,12.574,0,0,0-2.01-2.513,26.976,26.976,0,0,1,1.005-8.643,39.68,39.68,0,0,0,1-4.925,4.865,4.865,0,0,0,.952.167c.158.011.158.011.216.158a4.359,4.359,0,0,0,.34.68c-.75.815-.779,1.007-1,2.505v.007h.5v-1c1.323-.564,1.953-2.691,2.562-4.748a22.359,22.359,0,0,1,.955-2.79h-1a11.116,11.116,0,0,1-.428,2.56,2.428,2.428,0,0,1-1.079,1.46,1.793,1.793,0,0,1-1.036.415h0c-.124.022-.279.05-.47.087V69.344a1.927,1.927,0,0,0,1.062-1.36,9.893,9.893,0,0,0,.251-2.079,5.846,5.846,0,0,1,.7-3.093,9.869,9.869,0,0,1,1.226-1.3,7.512,7.512,0,0,0,1.789-2.214l.386.146a6.338,6.338,0,0,1,2.084,1.06,3.854,3.854,0,0,1,1.048,2.312,22.621,22.621,0,0,0-3.273,4.43,45.107,45.107,0,0,0-3.183,6.536,32.373,32.373,0,0,0-1.965,7.083,12.308,12.308,0,0,0,.381,6.07Zm-1.508-9.045-.124.868,0,.013q-.189,1.318-.376,2.636h.5V80.4A3.286,3.286,0,0,0,91.463,77.887Zm30.149,7.035h0c-.1-.142-.189-.264-.267-.371l0,0c-.525-.718-.635-.867-.736-2.641-.907-1.4-.468-4.784,1.306-10.057,1.418-4.217,3.282-8.424,4.078-10.22l.144-.325h2.01c.2.312.372.558.526.774a4.724,4.724,0,0,1,.981,3.246,10.565,10.565,0,0,0-1.928,2.325,26.1,26.1,0,0,0-1.711,3.177,44.49,44.49,0,0,0-2.391,6.558,15.055,15.055,0,0,0-.4,3.064,13.014,13.014,0,0,1-.326,2.6,3.026,3.026,0,0,1-1.284,1.87Zm9.547-1h0c-.2-.39-.384-.735-.566-1.068a9.543,9.543,0,0,1-1.444-4.962,11.17,11.17,0,0,0,1.418-3.756,14.665,14.665,0,0,1,1.095-3.279,44.147,44.147,0,0,1,4.288-6.3c.943-1.228,1.916-2.5,2.747-3.748a8.254,8.254,0,0,1,4.4,3.144,9.839,9.839,0,0,0,2.633,2.383.337.337,0,0,0,.162.032,3.32,3.32,0,0,0,.649-.116l.157-.037a4.813,4.813,0,0,1,1.07-.153,1.628,1.628,0,0,1,.977.275c.656.468.74.973.879,1.809.035.21.074.445.126.7a20.249,20.249,0,0,0-4.331,6.876,13.42,13.42,0,0,0-.694,8.2h-1a5.955,5.955,0,0,0-.613-.608,2.737,2.737,0,0,1-.9-1.4,4.9,4.9,0,0,1-.957-4.407,24.119,24.119,0,0,1,1.6-4.87c.346-.844.673-1.64.861-2.281h-.5c-1.581,2.513-9.511,12.95-12.06,13.567Zm10.05-19.1h0c-.957,1.465-2,2.83-3,4.149a52.219,52.219,0,0,0-3.826,5.5,24.855,24.855,0,0,0-1.563,3.192,23.8,23.8,0,0,0-1.156,3.741h.5a26.116,26.116,0,0,1,3.241-4.207c1.093-1.155,2.214-2.142,3.3-3.1a30.94,30.94,0,0,0,6.525-7.271c-.323-.186-.619-.371-.906-.55a10.624,10.624,0,0,0-3.114-1.46ZM1.014,83.414h0c-.907-1.691-1.057-3.753-1-6.532a14.113,14.113,0,0,0,1.933-4.745,24.368,24.368,0,0,1,1.082-3.295,83.625,83.625,0,0,1,8.04-14.572h0A8.917,8.917,0,0,1,14.7,55.318c.92.65,1.347,1.722,1.384,3.474-.65.871-1.8,4.015-3.152,8.625a94.644,94.644,0,0,0-2.375,9.465h.5v-1a26.273,26.273,0,0,0,4.157-6.952A44.32,44.32,0,0,1,17.6,64.319c1.1-1.772,2.412-3.481,3.68-5.134a61.508,61.508,0,0,0,3.857-5.419c.142.187.263.331.361.447.363.432.429.51.142,1.061-.148.079-.246.135-.312.172a.513.513,0,0,1-.132.066c-.01,0-.013-.008-.017-.021-.016-.049-.055-.162-.544-.216.108,1.4-4.152,8.491-7.576,14.193l0,0c-1.453,2.421-2.709,4.511-3.477,5.9a16.42,16.42,0,0,0-1.023,2.461,11.539,11.539,0,0,1-1.322,2.9,4.074,4.074,0,0,1-1.082,1.059,4.249,4.249,0,0,1-1.6.618c-.143-.267-.258-.455-.36-.62A4.188,4.188,0,0,1,7.547,79.9a16.062,16.062,0,0,0,1.48-3.249c.463-1.295.941-2.879,1.383-4.581a59.243,59.243,0,0,0,1.66-8.752h-.5v.5a34.487,34.487,0,0,0-4.2,6.244c-1.439,2.608-2.611,5.149-3.34,6.821a14.674,14.674,0,0,0-.76,2.512c-.389,1.638-.757,3.184-2.255,4.02ZM80.408,81.4h0a8.6,8.6,0,0,1-.87-3.038,28.569,28.569,0,0,1-.135-4c1.346-1.785,3.034-5.71,4.39-8.864.606-1.41,1.179-2.742,1.64-3.7a5.345,5.345,0,0,1,2.742.741,3.333,3.333,0,0,1,1.277,2.274,18.485,18.485,0,0,0-2.844,3.7,35.584,35.584,0,0,0-2.181,4.342h.5a7.919,7.919,0,0,1,1.884-1.948,3.9,3.9,0,0,0,.629-.564l-.041-.09,0-.008c-.146-.318-.146-.318-.1-.431a2.868,2.868,0,0,0,.149-.978h.011a3.046,3.046,0,0,0,2.323-1.075,6.244,6.244,0,0,1,2.188-1.438v.5c-1.517,1.23-2.905,3.735-4.375,6.387-2.144,3.869-4.362,7.869-7.182,8.186ZM129.653,59.8h0a7.882,7.882,0,0,1-.5-2.512,10.014,10.014,0,0,0,1.822-2.462,13.7,13.7,0,0,0,1.194-3.066h2.01a8.977,8.977,0,0,0,1.508,2.01c-.09.251-.136.4-.166.492a.567.567,0,0,1-.154.29v0c-.041.049-.1.116-.18.222a8.02,8.02,0,0,1-2.112,3.143,6.973,6.973,0,0,1-3.415,1.882ZM26.641,54.772h-.5V53.767c.071.09.123.153.16.2a.607.607,0,0,1,.165.3c.031.1.078.244.177.508ZM51.372,44.741h0c-.2,0-.409-.006-.611-.019a6.267,6.267,0,0,0-.133-1.225.826.826,0,0,1,.133-.785,4.373,4.373,0,0,1,1.823-2.123,13.64,13.64,0,0,1,2.606-1.155,14.8,14.8,0,0,0,2.371-1.018A4.342,4.342,0,0,0,59.3,36.682a4.857,4.857,0,0,1-.8-2.107,13.242,13.242,0,0,1-.128-2.788A27.051,27.051,0,0,1,59.3,26.13c.118-.427.248-.911.4-1.472A138.791,138.791,0,0,1,64.429,9.7a33.617,33.617,0,0,1,3.461-6.764,9.722,9.722,0,0,1,1.934-2.1A3.66,3.66,0,0,1,71.866,0c.091.072.157.125.2.161a.606.606,0,0,0,.3.165c.1.031.243.078.508.177A11.549,11.549,0,0,0,73.519,2.1a7.676,7.676,0,0,1,.859,3.432c-1.389.7-2.869,2.391-4.4,5.026a56.492,56.492,0,0,0-3.945,8.737,90.157,90.157,0,0,0-2.914,9.644,46.31,46.31,0,0,0-1.3,7.747h.5a12.154,12.154,0,0,1,4.368-1.933,22.6,22.6,0,0,1,5.343-.588A32.356,32.356,0,0,1,82.7,36.008c3.235,1.182,5.328,2.709,5.744,4.191a5.41,5.41,0,0,1,.5,3.012v0h-1a9.753,9.753,0,0,0-.956-3.9l-.049-.117a83.6,83.6,0,0,0-12.1-1.113A30.8,30.8,0,0,0,64.329,39.7a34.642,34.642,0,0,0-4.6,2.188,37.418,37.418,0,0,1-4.044,1.968A11.806,11.806,0,0,1,51.372,44.741Zm23.509-9.567h0a4.052,4.052,0,0,0,2.246.535,4.172,4.172,0,0,0,2.276-.535H74.881Zm-2.513,0h0a1.988,1.988,0,0,0,1,.4,2.069,2.069,0,0,0,1.012-.4h-2.01ZM20.289,38.3h0a1.911,1.911,0,0,1-.682-.109,5.409,5.409,0,0,1-.5-3.015c.783-.38,1.553-.8,2.3-1.209h0a20.874,20.874,0,0,1,7.248-2.81A39.927,39.927,0,0,1,31.431,20.3c1.368-3.477,3.034-6.786,4.646-9.985C36.826,8.83,37.533,7.427,38.2,6.03H37.194a27.093,27.093,0,0,1-5.02,2.924,38.979,38.979,0,0,1-5.532,2.1V8.04A50.5,50.5,0,0,1,37.594,2.755a44.23,44.23,0,0,1,6.259-1.638A36.189,36.189,0,0,1,50.32.51,29.656,29.656,0,0,1,55.786,1c.1.212.183.4.261.563a7.065,7.065,0,0,1,.744,2.452h-.5a4.277,4.277,0,0,0-1.95-.958,11.5,11.5,0,0,0-2.747-.293,19.8,19.8,0,0,0-5.506.814,10.753,10.753,0,0,0-2.148.878,3.059,3.059,0,0,0-1.216,1.067c.671,1.408-.79,3.6-1.965,5.357-.412.617-.8,1.2-1.05,1.678-.5.962-1.021,1.916-1.57,2.926-1.233,2.266-2.506,4.609-3.581,7.046a31.593,31.593,0,0,0-2.386,7.615h.5a4.373,4.373,0,0,1,2.531-.639,13.271,13.271,0,0,1,5.007,1.141,10.306,10.306,0,0,1-.385,5.081l-.117.447h-.5V34.17c.07-.089.122-.152.159-.2l0,0a.6.6,0,0,0,.165-.3c.031-.1.077-.242.177-.508H37.7a4.39,4.39,0,0,0-1.475-.228c-2.336,0-5.488,1.324-8.516,2.681l-.83.373C24.242,37.177,21.755,38.3,20.289,38.3ZM46.741,1h0c.1.051.184.1.258.135l.006,0a1.174,1.174,0,0,0,.49.195,1.2,1.2,0,0,0,.5-.2c.069-.037.154-.082.254-.134ZM117.9,33.67h0l-.306,0a17.4,17.4,0,0,0-.852-2.321,11.953,11.953,0,0,1-1.158-5.217,15.682,15.682,0,0,0,2.443-4.341,23.6,23.6,0,0,1,1.577-3.2,24.335,24.335,0,0,1,3.56-4.1,26.162,26.162,0,0,0,3.475-3.943c.151.066.295.127.434.187l0,0a3.7,3.7,0,0,1,2.576,2.324c1.01,1.259,1.053,3.085,1,5.527a21.362,21.362,0,0,0-2.415,3.422,26.117,26.117,0,0,1-1.974,2.919,8.145,8.145,0,0,1-2.646,2.2l-5.025,1-.047.4a10.78,10.78,0,0,0,.047,4.123h2.513a24.019,24.019,0,0,1,3.339-2.468,15.559,15.559,0,0,0,4.7-4.064l.7.234.105.035.7.234-.326.326-.177.177a13.824,13.824,0,0,1-4.681,4.672,12.962,12.962,0,0,1-3.362,1.369A17.1,17.1,0,0,1,117.9,33.67Zm10.748-18.595h0a31.545,31.545,0,0,1-3.559,4.223c-.914.961-1.857,1.953-2.712,3.051a17.317,17.317,0,0,0-2.271,3.781h1.507c.361-.345.883-.774,1.488-1.271a28.347,28.347,0,0,0,4.613-4.443,7.1,7.1,0,0,0,1.329-2.644,3.67,3.67,0,0,0-.4-2.7ZM103.021,33.667h0a5.416,5.416,0,0,0-1.407-.951l-.1-.054a38.182,38.182,0,0,1,.189-9.8c.435-3.335,1.145-6.7,1.832-9.961.163-.771.331-1.568.491-2.349h1.507a22.414,22.414,0,0,0,1.8,1.524c.433.341.841.663,1.213.989l-1.933,8.008-1.585,6.564h1.005a15.013,15.013,0,0,1,1.841-3.134c.843-1.208,1.917-2.63,2.948-3.9h-.266V19.6c.071.09.123.153.161.2a.606.606,0,0,1,.165.3c.022.068.051.161.1.308l-.163.2h.236c-.026-.069-.05-.137-.073-.2.663-.81,1.224-1.453,1.581-1.81l.881-.293.627-.209c.534-.6,1.091-1.265,1.68-1.964a49.928,49.928,0,0,1,7.5-7.65,20.213,20.213,0,0,1,4.871-2.835A15.554,15.554,0,0,1,133.9,4.52l.278,0c.073.136.14.257.2.374l0,.006a5.445,5.445,0,0,1,.8,3.138l-.236.235-.267.267h-.5V5.527c-4.242.356-8.613,2.45-12.991,6.223a48.806,48.806,0,0,0-5.147,5.215c-1.353,1.58-2.69,3.311-3.972,5.145a27.027,27.027,0,0,0-1.96,3.678,29.512,29.512,0,0,1-2.841,5.109,6.166,6.166,0,0,1-4.243,2.77Zm-.5-9.548h0l.016.2a2.941,2.941,0,0,0,.486,1.813L103,25.935a2.909,2.909,0,0,0-.486-1.816Zm28.642,2.513h0c-.07-.088-.121-.151-.159-.2l0,0a.6.6,0,0,1-.164-.3c-.031-.1-.078-.244-.177-.508h1l-.3.3-.051.051-.153.154v.5Zm4.522-5.527h-.5V19.6a2.082,2.082,0,0,0,.7.283c.022,0,.022,0,.023.022a1.725,1.725,0,0,0,.283.7l-.254.254-.055.055-.193.193Z"/><path class="c" d="M894.347,710.747a11.535,11.535,0,0,0-2.8-.583c-.406.253-1.262.075-1.749.233a5.665,5.665,0,0,0-2.915,1.982c-.572-.211-.829-.733-1.282-1.049a8.117,8.117,0,0,0-2.448-1.049,6.757,6.757,0,0,0-3.032.233c-3.192,1.083-5.385,3.938-3.964,8.4a20.073,20.073,0,0,0,7.462,9.794c.94.7,1.817,1.828,3.032,2.215.312.229.887-.5,1.166-.7a24.9,24.9,0,0,0,3.5-2.8c2.175-2.172,4.324-4.261,5.6-7.346a15.327,15.327,0,0,0,.583-1.982A6.2,6.2,0,0,0,894.347,710.747Z" transform="translate(-800.242 -700.212)"/></g><g transform="translate(1.572 0)"><path class="b" d="M24.129,96.982h0a3.5,3.5,0,0,0-1.962-.992l-.048-.014q-.252-.753-.5-1.507a6.2,6.2,0,0,0,1.824.3c2.216,0,3.709-1.435,5.153-2.823h0c.346-.332.7-.676,1.061-.989a55.2,55.2,0,0,0,4.59-4.487A46.88,46.88,0,0,0,38.1,81.609a50.091,50.091,0,0,0,3.277-5.46,66.178,66.178,0,0,0,2.847-6.3h-1a76.556,76.556,0,0,1-6.441,8.177,49.242,49.242,0,0,1-4.221,4.258,8.818,8.818,0,0,1-3.408,2.138,5.941,5.941,0,0,0-.612-.608,2.737,2.737,0,0,1-.9-1.4,5.3,5.3,0,0,1-.539-2.888,11.92,11.92,0,0,1,.539-3.142A83.325,83.325,0,0,1,35.184,60.3h2.01c.21.3.393.523.554.723a3.432,3.432,0,0,1,.691,1.122,7.712,7.712,0,0,1,.263,2.174,13.61,13.61,0,0,0-3.217,3.305,28.207,28.207,0,0,0-2.683,4.7,39.377,39.377,0,0,0-3.146,10.583h.5a45.448,45.448,0,0,1,7.992-9.04c1.285-1.2,2.613-2.433,3.883-3.8a33.756,33.756,0,0,0,3.7-4.745l1.507.5c.144.268.259.456.361.622a4.187,4.187,0,0,1,.645,1.891c.4.756.272,1.929-.4,3.585a36.444,36.444,0,0,1-2.137,4.157c-.411.721-.766,1.342-.985,1.806-.8,1.687-1.881,3.915-3.211,6.192a39.64,39.64,0,0,1-4.372,6.2,21.825,21.825,0,0,1-5.731,4.777,15.574,15.574,0,0,1-3.437,1.41A14.835,14.835,0,0,1,24.129,96.982Zm5.025-3.015h0l-.5,1A.216.216,0,0,0,28.76,95c.316,0,.853-.517,1.174-.826a2.513,2.513,0,0,1,.226-.205Zm4.522-4.02-3.015,3.517a.281.281,0,0,0,.1.019c.329,0,.939-.453,1.63-1.212a6.647,6.647,0,0,0,1.313-1.927c.064-.2.053-.335-.033-.4Zm-.5-1h0c-.15.3-.324.648-.5,1,.48-.386.581-.65.581-.8a.268.268,0,0,0-.079-.2ZM20.109,89.947H19.1v-.5a2.078,2.078,0,0,0-.7-.283c-.022,0-.022,0-.023-.022a1.724,1.724,0,0,0-.283-.7,5.048,5.048,0,0,1-.762-2.425,10.692,10.692,0,0,1,.21-2.806A31.478,31.478,0,0,1,19.185,78c.167-.434.311-.809.422-1.123.634-1.81,1.125-3.555,1.6-5.243a58.269,58.269,0,0,1,2.42-7.319c.5-1.172,1.09-2.34,1.716-3.576a31.575,31.575,0,0,0,3.309-8.484h-.5c-.633.894-.781,1.028-1.133,1.028-.076,0-.161-.007-.26-.014h-.01l-.105-.008-.26-.26-.242-.243a24.14,24.14,0,0,0,3.418-2.936c.208-.2.4-.393.6-.582a4.949,4.949,0,0,1,3.517,2.512c.6.958.6,2.281-.015,4.043a28.382,28.382,0,0,1-2.1,4.331c-.365.652-.68,1.215-.9,1.676-2.191,4.656-4.073,9.07-5.752,13.493-1.852,4.879-3.422,9.67-4.8,14.647Zm36.445-1.379h0a2.09,2.09,0,0,1-.768-.129,5.417,5.417,0,0,1-.5-3.015c.417-.24.842-.495,1.254-.741a35.171,35.171,0,0,1,3.794-2.058,14.355,14.355,0,0,1,4.5-1.221,34.36,34.36,0,0,1,2.73-10.8c1.461-3.661,3.28-7.262,4.885-10.438v0c.7-1.384,1.36-2.692,1.931-3.885h-1A26.9,26.9,0,0,1,68.339,59.2a38.989,38.989,0,0,1-5.517,2.1V58.289a51.184,51.184,0,0,1,5.724-3.2,42.7,42.7,0,0,1,6.16-2.371A51.141,51.141,0,0,1,89.5,50.737c.479,0,.971.005,1.462.015a12.542,12.542,0,0,0,2.01,2.513v1H91.966c-.893-1.066-2.777-1.29-4.2-1.29a19.083,19.083,0,0,0-5.512.887c-1.777.563-3,1.259-3.352,1.911a3.462,3.462,0,0,1-.43,2.594,27.346,27.346,0,0,1-1.713,3c-.334.532-.649,1.034-.872,1.442-.451.824-.923,1.657-1.423,2.539C71.888,69.89,68.97,75.034,68.349,80.4h.5a4.1,4.1,0,0,1,2.362-.629,15.6,15.6,0,0,1,4.4.9c.281.087.545.17.772.235v2.01a3.1,3.1,0,0,1-.169,2.382c-.108.337-.23.719-.333,1.136h-1V85.424c.141-.186.263-.33.36-.446.364-.432.429-.51.142-1.061a4.791,4.791,0,0,0-2.807-.788,13.184,13.184,0,0,0-4.2.85c-1.5.515-3.038,1.2-4.483,1.87l-.908.422-.027.012c-1.3.6-2.518,1.172-3.611,1.593A8.257,8.257,0,0,1,56.554,88.568ZM81.916,51.254h0c.1.052.187.1.263.137h0a1.174,1.174,0,0,0,.49.195,1.2,1.2,0,0,0,.5-.2c.073-.039.156-.083.254-.134Zm31.657,37.185h-.5c-.091-.071-.154-.124-.2-.162a.6.6,0,0,0-.3-.165c-.1-.031-.242-.078-.507-.177a14.981,14.981,0,0,1-1.231-7.859,52.926,52.926,0,0,1,1.455-8.036c.1-.41.188-.8.279-1.19h-1c-.674,1.06-2.878,4.112-5.265,7.083-1.291,1.607-2.422,2.927-3.364,3.925a8.771,8.771,0,0,1-2.427,2.056,7.2,7.2,0,0,0-1.605-.832c-.143-.06-.277-.117-.4-.173l-.064-.161a12.114,12.114,0,0,1-.941-3.356,35.855,35.855,0,0,0,2.8-6.176,32.84,32.84,0,0,1,3.62-7.519,9.91,9.91,0,0,1,2.764-2.65,8.462,8.462,0,0,1,3.879-1.242c.47.456.935.847,1.384,1.225a11.791,11.791,0,0,1,2.637,2.795h.5c.91-3.723,3.2-6.978,5.4-10.127.953-1.358,1.854-2.641,2.635-3.943,1.67.376,2.362.647,3.015,2.01a4.113,4.113,0,0,1,.5,2.373l.006.139a21.729,21.729,0,0,0-5.024,5.421,50.117,50.117,0,0,0-4.657,8.415,47.442,47.442,0,0,0-3.083,9.537,23.212,23.212,0,0,0-.3,8.787Zm-1.507-23.115h0a1.807,1.807,0,0,1-1.034.415c-.118.021-.279.05-.474.088-1.083,1.417-2.255,2.742-3.389,4.022a52.824,52.824,0,0,0-4.463,5.53,24,24,0,0,0-1.834,3.229,22.127,22.127,0,0,0-1.369,3.8h.5a57.723,57.723,0,0,1,4-5.515,67.379,67.379,0,0,1,4.54-5.037,21.055,21.055,0,0,1,1.934-1.634c1.443-1.127,2.935-2.292,3.594-3.894-.286-.156-.474-.276-.64-.381a4.693,4.693,0,0,0-1.37-.624Zm2.512,3.518h0l-.212.637-.017.051-.273.82h.5v-.5c.075-.1.137-.171.187-.232l0,0c.206-.252.206-.252.115-.329a1.057,1.057,0,0,1-.306-.439ZM92.971,86.932H91.966a12.558,12.558,0,0,0-2.01-2.513,26.978,26.978,0,0,1,1.005-8.643,39.677,39.677,0,0,0,1-4.925,4.87,4.87,0,0,0,.952.167c.158.011.158.011.216.158a4.361,4.361,0,0,0,.34.68c-.75.815-.779,1.007-1,2.505v.007h.5v-1c1.323-.564,1.953-2.691,2.562-4.748a22.368,22.368,0,0,1,.955-2.79h-1a11.121,11.121,0,0,1-.428,2.56,2.428,2.428,0,0,1-1.079,1.46,1.793,1.793,0,0,1-1.036.415c-.124.022-.278.05-.472.088V69.344a1.928,1.928,0,0,0,1.063-1.36,9.893,9.893,0,0,0,.251-2.079,5.846,5.846,0,0,1,.7-3.093,9.864,9.864,0,0,1,1.226-1.3,7.51,7.51,0,0,0,1.789-2.213l.386.146a6.337,6.337,0,0,1,2.084,1.06,3.854,3.854,0,0,1,1.048,2.312,22.621,22.621,0,0,0-3.273,4.43,45.108,45.108,0,0,0-3.183,6.536,32.371,32.371,0,0,0-1.965,7.083,12.308,12.308,0,0,0,.381,6.07Zm-1.508-9.045-.13.909-.022.157q-.175,1.226-.35,2.451h.5V80.4A3.287,3.287,0,0,0,91.463,77.886Zm30.149,7.035h0c-.1-.142-.189-.264-.268-.372v0c-.525-.718-.635-.867-.735-2.641-.907-1.4-.468-4.783,1.305-10.055,1.418-4.216,3.281-8.423,4.077-10.22l.009-.02.136-.307h2.01c.2.312.372.557.526.774a4.725,4.725,0,0,1,.981,3.246,10.561,10.561,0,0,0-1.928,2.325,26.106,26.106,0,0,0-1.711,3.177,44.523,44.523,0,0,0-2.391,6.558,15.057,15.057,0,0,0-.4,3.064,13.013,13.013,0,0,1-.326,2.6,3.026,3.026,0,0,1-1.284,1.87Zm23.115-1h-1.005a5.944,5.944,0,0,0-.612-.608,2.737,2.737,0,0,1-.9-1.4,4.9,4.9,0,0,1-.957-4.407,24.126,24.126,0,0,1,1.6-4.87c.346-.843.673-1.639.86-2.28h-.5c-1.581,2.514-9.513,12.951-12.06,13.567-.2-.39-.384-.734-.566-1.066a9.542,9.542,0,0,1-1.444-4.964,11.168,11.168,0,0,0,1.417-3.756,14.666,14.666,0,0,1,1.095-3.279,44.145,44.145,0,0,1,4.289-6.3c.942-1.228,1.916-2.5,2.746-3.747a8.254,8.254,0,0,1,4.4,3.144,9.839,9.839,0,0,0,2.633,2.383.338.338,0,0,0,.162.032,3.322,3.322,0,0,0,.65-.116l.157-.037a4.811,4.811,0,0,1,1.07-.153,1.628,1.628,0,0,1,.977.275c.656.468.74.973.879,1.809v.007c.034.207.073.441.125.7a20.245,20.245,0,0,0-4.331,6.876,13.418,13.418,0,0,0-.694,8.2ZM141.21,64.822h0c-.958,1.466-2,2.831-3,4.15a52.229,52.229,0,0,0-3.826,5.5,24.859,24.859,0,0,0-1.563,3.192,23.811,23.811,0,0,0-1.156,3.741h.5a26.113,26.113,0,0,1,3.241-4.207c1.093-1.155,2.214-2.141,3.3-3.1a30.945,30.945,0,0,0,6.526-7.271c-.324-.187-.621-.372-.908-.551a10.615,10.615,0,0,0-3.112-1.459ZM1.014,83.414h0C.107,81.723-.043,79.66.009,76.882a14.113,14.113,0,0,0,1.933-4.745,24.383,24.383,0,0,1,1.082-3.294,83.6,83.6,0,0,1,8.04-14.573h0A8.921,8.921,0,0,1,14.7,55.317c.92.65,1.347,1.722,1.384,3.474-.65.871-1.8,4.015-3.152,8.625a94.651,94.651,0,0,0-2.375,9.465h.5v-1a26.278,26.278,0,0,0,4.157-6.952A44.32,44.32,0,0,1,17.6,64.319c1.1-1.772,2.412-3.481,3.68-5.133a61.527,61.527,0,0,0,3.857-5.419c.142.187.263.331.361.446.364.433.429.511.142,1.061-.148.079-.247.135-.312.171a.516.516,0,0,1-.133.066c-.01,0-.013-.008-.017-.021-.016-.049-.055-.162-.543-.216.108,1.4-4.153,8.492-7.577,14.193-1.454,2.422-2.71,4.514-3.479,5.906a16.426,16.426,0,0,0-1.023,2.461,11.54,11.54,0,0,1-1.322,2.9,4.075,4.075,0,0,1-1.082,1.059,4.249,4.249,0,0,1-1.6.618c-.144-.268-.259-.456-.361-.622a4.186,4.186,0,0,1-.644-1.89,16.06,16.06,0,0,0,1.48-3.249c.463-1.3.941-2.879,1.383-4.581a59.251,59.251,0,0,0,1.66-8.752h-.5v.5a34.471,34.471,0,0,0-4.2,6.244c-1.439,2.606-2.61,5.148-3.34,6.821a14.681,14.681,0,0,0-.76,2.513c-.389,1.638-.756,3.184-2.254,4.02ZM80.408,81.4h0a8.6,8.6,0,0,1-.87-3.038,28.594,28.594,0,0,1-.135-4c1.345-1.784,3.033-5.709,4.389-8.863.607-1.411,1.18-2.744,1.641-3.7a5.346,5.346,0,0,1,2.743.741,3.333,3.333,0,0,1,1.277,2.274,18.486,18.486,0,0,0-2.844,3.7,35.586,35.586,0,0,0-2.181,4.342h.5a7.915,7.915,0,0,1,1.884-1.949,3.9,3.9,0,0,0,.629-.564l-.04-.087-.005-.011c-.146-.318-.146-.318-.1-.431a2.868,2.868,0,0,0,.149-.978h.012a3.045,3.045,0,0,0,2.323-1.075,6.244,6.244,0,0,1,2.188-1.438v.5c-1.517,1.23-2.905,3.735-4.375,6.387-2.144,3.869-4.362,7.869-7.182,8.186ZM129.653,59.8h0a7.875,7.875,0,0,1-.5-2.512,10.017,10.017,0,0,0,1.821-2.462,13.709,13.709,0,0,0,1.194-3.066h2.01a8.974,8.974,0,0,0,1.508,2.01c-.09.251-.136.4-.166.492a.567.567,0,0,1-.154.29c-.041.049-.1.116-.182.223a8.019,8.019,0,0,1-2.112,3.143,6.971,6.971,0,0,1-3.415,1.882ZM26.641,54.772h-.5V53.767c.071.09.123.153.161.2a.6.6,0,0,1,.165.3c.029.091.078.243.177.508ZM51.372,44.741h0c-.2,0-.409-.006-.611-.019a6.273,6.273,0,0,0-.133-1.226.825.825,0,0,1,.133-.784,4.373,4.373,0,0,1,1.823-2.123,13.639,13.639,0,0,1,2.606-1.155,14.794,14.794,0,0,0,2.371-1.018A4.341,4.341,0,0,0,59.3,36.682a4.857,4.857,0,0,1-.8-2.107,13.243,13.243,0,0,1-.128-2.788A27.055,27.055,0,0,1,59.3,26.13c.118-.428.249-.912.4-1.473A138.78,138.78,0,0,1,64.429,9.7a33.612,33.612,0,0,1,3.461-6.763,9.721,9.721,0,0,1,1.934-2.1A3.66,3.66,0,0,1,71.866,0c.09.07.153.122.2.16a.607.607,0,0,0,.3.165c.1.031.243.078.508.177A11.548,11.548,0,0,0,73.519,2.1a7.675,7.675,0,0,1,.859,3.432c-1.389.7-2.869,2.391-4.4,5.026a56.5,56.5,0,0,0-3.945,8.737,90.17,90.17,0,0,0-2.914,9.644,46.313,46.313,0,0,0-1.3,7.747h.5a12.156,12.156,0,0,1,4.368-1.933,22.6,22.6,0,0,1,5.344-.588A32.355,32.355,0,0,1,82.7,36.008c3.235,1.181,5.328,2.709,5.744,4.191a5.413,5.413,0,0,1,.5,3.015h-1a9.76,9.76,0,0,0-.958-3.906l-.047-.114a83.594,83.594,0,0,0-12.1-1.113A30.8,30.8,0,0,0,64.329,39.7a34.639,34.639,0,0,0-4.606,2.188,37.413,37.413,0,0,1-4.043,1.967A11.8,11.8,0,0,1,51.372,44.741Zm23.509-9.567a4.053,4.053,0,0,0,2.246.535,4.172,4.172,0,0,0,2.276-.535H74.881Zm-2.512,0h0a1.987,1.987,0,0,0,1,.4,2.071,2.071,0,0,0,1.012-.4h-2.01ZM20.288,38.3a1.911,1.911,0,0,1-.682-.109,5.406,5.406,0,0,1-.5-3.012v0c.784-.38,1.554-.8,2.3-1.21a20.876,20.876,0,0,1,7.248-2.81A39.927,39.927,0,0,1,31.431,20.3c1.368-3.478,3.035-6.787,4.647-9.987.749-1.486,1.456-2.89,2.121-4.284h-1a27.084,27.084,0,0,1-5.02,2.924,38.973,38.973,0,0,1-5.532,2.1V8.04A50.506,50.506,0,0,1,37.594,2.755a44.234,44.234,0,0,1,6.259-1.638A36.187,36.187,0,0,1,50.32.51,29.653,29.653,0,0,1,55.786,1c.094.21.181.4.259.559l0,0a7.067,7.067,0,0,1,.744,2.451h-.5a4.277,4.277,0,0,0-1.95-.958,11.5,11.5,0,0,0-2.747-.293,19.8,19.8,0,0,0-5.506.814,10.759,10.759,0,0,0-2.148.878,3.059,3.059,0,0,0-1.216,1.067c.671,1.408-.791,3.6-1.965,5.357-.412.617-.8,1.2-1.05,1.677-.5.961-1.021,1.916-1.57,2.926C36.9,17.754,35.63,20.1,34.554,22.535a31.6,31.6,0,0,0-2.386,7.615h.5a4.372,4.372,0,0,1,2.53-.639,13.271,13.271,0,0,1,5.007,1.141,10.306,10.306,0,0,1-.385,5.08l0,.009-.115.439h-.5V34.17c.071-.09.123-.153.161-.2a.6.6,0,0,0,.165-.3c.031-.1.077-.242.177-.508H37.7a4.389,4.389,0,0,0-1.475-.228c-2.336,0-5.488,1.324-8.516,2.681l-.831.374C24.241,37.178,21.754,38.3,20.288,38.3ZM46.741,1h0c.1.052.189.1.265.138a1.175,1.175,0,0,0,.49.195,1.2,1.2,0,0,0,.5-.2l.007,0L48.249,1ZM117.9,33.669h0l-.306,0a17.4,17.4,0,0,0-.852-2.321,11.951,11.951,0,0,1-1.158-5.216,15.681,15.681,0,0,0,2.444-4.341,23.588,23.588,0,0,1,1.577-3.2,24.334,24.334,0,0,1,3.56-4.1,26.165,26.165,0,0,0,3.475-3.943c.154.067.3.132.438.188,1.251.533,2.007.855,2.577,2.324,1.009,1.259,1.053,3.085,1,5.527a21.361,21.361,0,0,0-2.415,3.421,26.105,26.105,0,0,1-1.974,2.919,8.145,8.145,0,0,1-2.646,2.2l-2.736.547-.728.146-1.561.312-.047.4a10.791,10.791,0,0,0,.047,4.126h2.513a24.013,24.013,0,0,1,3.338-2.468,15.562,15.562,0,0,0,4.7-4.064l1.357.452.151.05-.26.26-.242.242a13.824,13.824,0,0,1-4.681,4.672,12.962,12.962,0,0,1-3.362,1.369A17.1,17.1,0,0,1,117.9,33.669Zm10.748-18.595a31.542,31.542,0,0,1-3.559,4.223c-.913.96-1.857,1.953-2.712,3.052a17.317,17.317,0,0,0-2.271,3.78h1.507c.362-.346.884-.775,1.489-1.272a28.349,28.349,0,0,0,4.613-4.442,7.1,7.1,0,0,0,1.329-2.644A3.67,3.67,0,0,0,128.648,15.075ZM103.021,33.667h0a5.421,5.421,0,0,0-1.409-.952l-.1-.053a38.172,38.172,0,0,1,.189-9.8c.435-3.333,1.144-6.7,1.831-9.956l0-.021c.162-.769.33-1.565.489-2.337h1.507a22.466,22.466,0,0,0,1.8,1.526c.432.341.84.662,1.211.987l-3.518,14.572h1a15.013,15.013,0,0,1,1.841-3.134c.843-1.208,1.917-2.63,2.948-3.9h-.266V19.6c.071.091.123.154.162.2a.6.6,0,0,1,.165.3c.022.07.052.163.1.307l-.163.2h.236c-.026-.07-.051-.138-.073-.2.663-.81,1.224-1.453,1.581-1.81l1.392-.464.116-.039c.532-.6,1.09-1.263,1.68-1.963a49.937,49.937,0,0,1,7.5-7.651,20.214,20.214,0,0,1,4.871-2.835A15.554,15.554,0,0,1,133.9,4.52l.278,0c.074.137.141.259.206.377v0a5.445,5.445,0,0,1,.8,3.138l-.5.5h-.5V5.527c-4.242.356-8.613,2.45-12.991,6.223a48.792,48.792,0,0,0-5.147,5.215c-1.353,1.58-2.69,3.311-3.972,5.145a27.027,27.027,0,0,0-1.961,3.679,29.513,29.513,0,0,1-2.841,5.109,6.166,6.166,0,0,1-4.243,2.769Zm-.5-9.548h0l.015.179v.016a2.947,2.947,0,0,0,.486,1.816L103,25.935a2.909,2.909,0,0,0-.486-1.816Zm28.642,2.513h0c-.071-.09-.123-.153-.16-.2a.606.606,0,0,1-.165-.3c-.029-.091-.077-.242-.177-.508h1l-.047.047-.026.026-.429.429v.5Zm4.523-5.527h-.5V19.6a2.081,2.081,0,0,0,.7.283c.022,0,.022,0,.023.022a1.721,1.721,0,0,0,.283.7l-.183.183-.066.066-.045.045-.209.209Z"/><path class="d" d="M898.722,706.372a11.518,11.518,0,0,0-2.8-.583c-.406.253-1.262.075-1.749.233A5.665,5.665,0,0,0,891.26,708c-.572-.211-.829-.733-1.282-1.049a8.115,8.115,0,0,0-2.448-1.049,6.756,6.756,0,0,0-3.032.233c-3.192,1.083-5.385,3.938-3.964,8.4a20.073,20.073,0,0,0,7.462,9.794c.94.7,1.817,1.828,3.032,2.215.312.229.887-.5,1.166-.7a24.92,24.92,0,0,0,3.5-2.8c2.175-2.172,4.323-4.261,5.6-7.346a15.327,15.327,0,0,0,.583-1.982A6.2,6.2,0,0,0,898.722,706.372Z" transform="translate(-804.616 -695.837)"/></g></g></g></g></svg>