<svg xmlns="http://www.w3.org/2000/svg" xmlns:xlink="http://www.w3.org/1999/xlink" width="456.197" height="236" viewBox="0 0 456.197 236"><defs><style>.a{fill:#fff;}.b{fill:#ff0;}.c{clip-path:url(#a);}.d{clip-path:url(#b);}.e{clip-path:url(#c);}.f{clip-path:url(#d);}.g{clip-path:url(#e);}.h{clip-path:url(#f);}</style><clipPath id="a"><rect width="362.971" height="125.059"/></clipPath><clipPath id="b"><rect width="444.159" height="133.785"/></clipPath><clipPath id="c"><rect width="35.542" height="41.441"/></clipPath><clipPath id="d"><rect class="a" width="362.971" height="125.059"/></clipPath><clipPath id="e"><rect class="a" width="444.159" height="133.785"/></clipPath><clipPath id="f"><rect class="b" width="35.542" height="41.441"/></clipPath></defs><g transform="translate(-1045 -584)"><g transform="translate(1045 590.726)"><g transform="translate(30.936 104.215)"><g class="c" transform="translate(0 0)"><path d="M92.4,27,63.378,30,36.438,67.067l7.295-35.043L18.831,34.6,0,125.059l24.9-2.572,8.1-38.944,15.414,36.515,26.149-2.7L56.081,75.133Zm7.253-.75L80.828,116.711l24.9-2.572L124.56,23.676Zm59.06-6.1-46.61,93.332,27.652-2.855,5.43-11.943,25.274-2.61.576,11.321,26.149-2.7L188,17.123Zm-3.886,57.3,13.031-28.534,1.483,27.034ZM283.755,39.479q3.028-14.35-4.885-22.7T257.328,9.836L222.336,13.45,203.45,103.918l24.9-2.572,5.967-28.51,8.042-.757,8.008,26.993,25.024-2.584L265.346,65.154q15.048-9.143,18.409-25.675m-25,1.823a11.334,11.334,0,0,1-3.42,6.423,10.021,10.021,0,0,1-6.275,2.669l-10.271,1.061,3.514-16.8,10.011-1.034q3.752-.387,5.485,1.647t.956,6.035M353.779,0,324.5,3.024,277.89,96.357,305.542,93.5l5.432-11.941,25.274-2.61.574,11.321,26.15-2.7ZM320.616,60.33,333.647,31.8l1.483,27.034Z" transform="translate(0 0)"/></g></g><g transform="translate(7.312 0)"><g class="d" transform="translate(0 0)"><path d="M91.768,36.4,62.939,39.376,36.186,76.191l7.245-34.8L18.7,43.945,0,133.785l24.732-2.556,8.049-38.675,15.306,36.263,25.971-2.683L55.693,84.2Zm31.064-3.208L76.543,125.878,104,123.042l5.394-11.86,25.1-2.592.57,11.244,25.971-2.683-9.13-86.964ZM118.973,90.1l12.942-28.337,1.473,26.848ZM220.762,22.949l-34.75,3.589-18.758,89.846,24.732-2.556,5.925-28.311,7.987-.753,7.953,26.807L238.7,109l-9.977-31.118q14.941-9.078,18.28-25.5,3.007-14.251-4.852-22.543t-21.392-6.9M222.181,54.2a11.266,11.266,0,0,1-3.4,6.378,9.956,9.956,0,0,1-6.232,2.651l-10.2,1.054L205.843,47.6l9.94-1.025q3.728-.387,5.447,1.634t.951,5.993M323.755,12.437l-65.737,6.789L252.88,44.121,273.383,42l-13.563,64.945,24.73-2.556,13.563-64.945,20.5-2.118Zm8.818-.911-18.7,89.838L338.6,98.81l18.7-89.84ZM444.159,0,415.332,2.977,388.578,39.793l7.246-34.8L371.092,7.547l-18.7,89.84,24.73-2.556,8.049-38.675,15.308,36.263,25.969-2.683L408.086,47.8Z" transform="translate(0 0.001)"/></g></g><g transform="translate(0 140.138)"><g class="e" transform="translate(0 0)"><path d="M27.851,18.049a40.339,40.339,0,0,1-2.694,5.441l-3.968-5.358q-.827-1.068-1.056-1.429t-.687-1.164a4.122,4.122,0,0,1-.543-1.4,3.386,3.386,0,0,1,.045-1.213,3.193,3.193,0,0,1,.93-1.716,2.966,2.966,0,0,1,1.817-.82q2.554-.264,3.926,3.6l9.922-6.188Q32.186-.909,22.35.107a16.945,16.945,0,0,0-9.457,3.887,13.744,13.744,0,0,0-4.8,8.3,11.561,11.561,0,0,0,.779,6.675Q1.454,23.248.218,30.241q-.959,5.373,2.305,8.578T12.69,41.312a22.366,22.366,0,0,0,9.985-3.5l2.581,3.359,9.024-5.327-3.966-5.413a65.287,65.287,0,0,0,4.96-8.147ZM11.738,31.276a2.421,2.421,0,0,1-.64-2.433,5.647,5.647,0,0,1,2.235-3.307l4.284,5.6a9.274,9.274,0,0,1-2.9.849,3.625,3.625,0,0,1-2.978-.708" transform="translate(0 0)"/></g></g></g><g transform="translate(1049.726 584)"><g transform="translate(30.936 104.215)"><g class="f" transform="translate(0 0)"><path class="a" d="M92.4,27,63.378,30,36.438,67.067l7.295-35.043L18.831,34.6,0,125.059l24.9-2.572,8.1-38.944,15.414,36.515,26.149-2.7L56.081,75.133Zm7.253-.75L80.828,116.711l24.9-2.572L124.56,23.676Zm59.06-6.1-46.61,93.332,27.652-2.855,5.43-11.943,25.274-2.61.576,11.321,26.149-2.7L188,17.123Zm-3.886,57.3,13.031-28.534,1.483,27.034ZM283.755,39.479q3.028-14.35-4.885-22.7T257.328,9.836L222.336,13.45,203.45,103.918l24.9-2.572,5.967-28.51,8.042-.757,8.008,26.993,25.024-2.584L265.346,65.154q15.048-9.143,18.409-25.675m-25,1.823a11.334,11.334,0,0,1-3.42,6.423,10.021,10.021,0,0,1-6.275,2.669l-10.271,1.061,3.514-16.8,10.011-1.034q3.752-.387,5.485,1.647t.956,6.035M353.779,0,324.5,3.024,277.89,96.357,305.542,93.5l5.432-11.941,25.274-2.61.574,11.321,26.15-2.7ZM320.616,60.33,333.647,31.8l1.483,27.034Z" transform="translate(0 0)"/></g></g><g transform="translate(7.312 0)"><g class="g" transform="translate(0 0)"><path class="a" d="M91.768,36.4,62.939,39.376,36.186,76.191l7.245-34.8L18.7,43.945,0,133.785l24.732-2.556,8.049-38.675,15.306,36.263,25.971-2.683L55.693,84.2Zm31.064-3.208L76.543,125.878,104,123.042l5.394-11.86,25.1-2.592.57,11.244,25.971-2.683-9.13-86.964ZM118.973,90.1l12.942-28.337,1.473,26.848ZM220.762,22.949l-34.75,3.589-18.758,89.846,24.732-2.556,5.925-28.311,7.987-.753,7.953,26.807L238.7,109l-9.977-31.118q14.941-9.078,18.28-25.5,3.007-14.251-4.852-22.543t-21.392-6.9M222.181,54.2a11.266,11.266,0,0,1-3.4,6.378,9.956,9.956,0,0,1-6.232,2.651l-10.2,1.054L205.843,47.6l9.94-1.025q3.728-.387,5.447,1.634t.951,5.993M323.755,12.437l-65.737,6.789L252.88,44.121,273.383,42l-13.563,64.945,24.73-2.556,13.563-64.945,20.5-2.118Zm8.818-.911-18.7,89.838L338.6,98.81l18.7-89.84ZM444.159,0,415.332,2.977,388.578,39.793l7.246-34.8L371.092,7.547l-18.7,89.84,24.73-2.556,8.049-38.675,15.308,36.263,25.969-2.683L408.086,47.8Z" transform="translate(0 0.001)"/></g></g><g transform="translate(0 140.138)"><g class="h" transform="translate(0 0)"><path class="b" d="M27.851,18.049a40.339,40.339,0,0,1-2.694,5.441l-3.968-5.358q-.827-1.068-1.056-1.429t-.687-1.164a4.122,4.122,0,0,1-.543-1.4,3.386,3.386,0,0,1,.045-1.213,3.193,3.193,0,0,1,.93-1.716,2.966,2.966,0,0,1,1.817-.82q2.554-.264,3.926,3.6l9.922-6.188Q32.186-.909,22.35.107a16.945,16.945,0,0,0-9.457,3.887,13.744,13.744,0,0,0-4.8,8.3,11.561,11.561,0,0,0,.779,6.675Q1.454,23.248.218,30.241q-.959,5.373,2.305,8.578T12.69,41.312a22.366,22.366,0,0,0,9.985-3.5l2.581,3.359,9.024-5.327-3.966-5.413a65.287,65.287,0,0,0,4.96-8.147ZM11.738,31.276a2.421,2.421,0,0,1-.64-2.433,5.647,5.647,0,0,1,2.235-3.307l4.284,5.6a9.274,9.274,0,0,1-2.9.849,3.625,3.625,0,0,1-2.978-.708" transform="translate(0 0)"/></g></g></g></g></svg>