<svg xmlns="http://www.w3.org/2000/svg" xmlns:xlink="http://www.w3.org/1999/xlink" width="310.19" height="181.715" viewBox="0 0 310.19 181.715"><defs><style>.a,.e{fill:#fff;}.b{clip-path:url(#a);}.c,.e{fill-rule:evenodd;}.d{clip-path:url(#b);}</style><clipPath id="a"><rect width="305.852" height="147.501"/></clipPath><clipPath id="b"><rect class="a" width="305.852" height="147.501"/></clipPath></defs><g transform="translate(-421 -510.911)"><g transform="translate(421 515.249)"><g transform="translate(44.426 138.545)"><path d="M132.326,19.488l-6.184,13.757-1.058-13.009-5.321.549-6.588,13.809-.582-13.069-6.888.711,1.318,23.735,6.749-.7,6.508-13.426L121.308,44.5l6.749-.7,11.725-25.082Z" transform="translate(-41.969 -7.432)"/><path d="M157.213,42.3l6.716-.693,5.077-24.4-6.715.694Z" transform="translate(-62.421 -6.835)"/><path d="M179.825,15.59l-1.4,6.76L184,21.775,180.315,39.41l6.715-.693,3.683-17.635,5.567-.575,1.4-6.76Z" transform="translate(-70.845 -5.458)"/><path d="M221.66,19.384l-5.768.6,1.8-8.643-6.715.693-5.078,24.4,6.716-.694,1.872-8.991,5.768-.6-1.872,8.991,6.716-.693,5.077-24.4-6.715.694Z" transform="translate(-81.751 -3.989)"/><rect width="13.868" height="2.412" transform="translate(46.95 36.432) rotate(-5.825)"/><rect width="35.574" height="2.412" transform="translate(23.172 29.033) rotate(-5.815)"/><rect width="57.883" height="2.412" transform="translate(157.139 5.864) rotate(-5.815)"/><rect width="35.574" height="2.412" transform="translate(155.102 15.462) rotate(-5.815)"/><rect width="13.868" height="2.412" transform="translate(152.462 23.854) rotate(-5.814)"/><rect width="57.883" height="2.412" transform="translate(0 23.502) rotate(-5.81)"/></g><g transform="translate(0 0)"><g class="b"><path class="c" d="M27.608,69.222q-6.788.7-8.974-5.172L5.33,72.209a14.532,14.532,0,0,0,6.758,9.175Q17.2,84.4,25.8,83.514q9.2-.951,15.123-5.527a20.488,20.488,0,0,0,7.569-12.522,18.182,18.182,0,0,0,.161-7.336,8.324,8.324,0,0,0-2.825-4.816,17.556,17.556,0,0,0-4.26-2.648,33.133,33.133,0,0,0-5.311-1.625,31.627,31.627,0,0,1-6.683-2.13A2.229,2.229,0,0,1,28.314,44.3q.706-2.817,4.629-3.223,5.205-.538,6.972,4.464l13.006-8.2a16.221,16.221,0,0,0-6.971-8.505q-4.709-2.716-11.5-2.014A24.991,24.991,0,0,0,20.485,32.6a21.592,21.592,0,0,0-7.371,12.274Q10.453,57.728,24.3,61.254q.967.206,2.722.558t2.719.634c.643.188,1.337.421,2.077.7a3.09,3.09,0,0,1,1.539,1.061,2.036,2.036,0,0,1,.242,1.576q-.635,2.887-5.99,3.44m45.215,9.434a28.472,28.472,0,0,0,15.966-6.685,26.008,26.008,0,0,0,8.622-14.93l7.528-36.289L89.926,22.3,82.752,56.89q-1.211,6.075-7.733,6.749-6.367.657-5.162-5.43l7.171-34.573-15.013,1.55-7.531,36.3q-1.743,8.415,3.4,13.3t14.936,3.87m43.467-5.71,5.484-26.182,11.185,24.461,12.069-1.247,11.207-54.524L141.221,17l-5.327,26.182L124.711,18.71l-12.068,1.247L101.276,74.5Zm58.989-6.093a33.407,33.407,0,0,0,20.26-9.3,37.495,37.495,0,0,0,10.885-19.84q2.384-11.528-3.536-19t-16.33-6.394l-21.876,2.259-11.357,54.54Zm2.047-38.788,6.035-.623q4.6-.474,6.891,2.6t1.187,8.454a18.058,18.058,0,0,1-4.848,9.077,13.424,13.424,0,0,1-8.271,4.171l-6.082.628ZM217.9,62.451l3.274-7.2,15.238-1.574.347,6.825,15.765-1.628L246.978,6.081,229.327,7.9l-28.1,56.27Zm16.944-37.2.894,16.3-8.751.9Zm27.637,32.6L277.49,56.3l4.824-23.619L305.852,0,288.2,1.823,276.937,19.149l-4.479-15.7-15.8,1.633,10.705,29.241ZM39.561,116.35a18.129,18.129,0,0,0,7.561-11.3q1.538-7.02-2.743-11.038T31.5,90.881L11.279,92.969,0,147.5l22.329-2.306q8.9-.919,14.6-5.625a19.007,19.007,0,0,0,6.931-11.541q1.5-8.006-4.3-11.678M29.223,127.558a5.574,5.574,0,0,1-1.8,2.968,5.754,5.754,0,0,1-3.245,1.365l-6.336.654,1.643-7.794,7.314-.68q3.151.132,2.424,3.486m2.627-20.017a4.847,4.847,0,0,1-3.98,3.919l-5.811.677,1.551-7.327,4.979-.514a3.667,3.667,0,0,1,2.647.565q.986.737.614,2.68m47.027-21.63-21.1,2.18L46.394,142.633l15.014-1.55,3.6-17.188,4.848-.457,4.828,16.274,15.087-1.558-6.057-18.891a22.829,22.829,0,0,0,11.1-15.479q1.825-8.65-2.945-13.685T78.878,85.911m.861,18.971a6.845,6.845,0,0,1-2.062,3.873,6.048,6.048,0,0,1-3.783,1.608L67.7,111l2.12-10.128,6.034-.623a3.594,3.594,0,0,1,3.307.993,4.2,4.2,0,0,1,.577,3.637M132.35,80.464l-7.174,34.587q-1.211,6.075-7.733,6.749-6.367.658-5.162-5.429L119.453,81.8,104.44,83.347l-7.531,36.3q-1.743,8.417,3.4,13.3t14.936,3.87a28.471,28.471,0,0,0,15.966-6.684,26.011,26.011,0,0,0,8.622-14.93l7.528-36.289Zm45.968,20.883L167.135,76.871l-12.068,1.247L143.7,132.658l15.014-1.551,5.484-26.182,11.185,24.461,12.069-1.246,11.207-54.524-15.013,1.55Zm45.781,9.284q-5.431.56-8.005-2.947t-1.466-9.036a18.566,18.566,0,0,1,5.479-9.866,16.2,16.2,0,0,1,9.717-4.664q6.713-.693,9.6,4.575l14.081-8.85q-6.223-12.469-21.761-10.866a34.759,34.759,0,0,0-20.69,9.762,37.537,37.537,0,0,0-11.406,20.695q-2.426,12.6,4.021,20.093t18.741,6.221a32.624,32.624,0,0,0,14.119-4.85,35.018,35.018,0,0,0,10.8-10.607l-12.222-6.743q-4.748,6.438-11.01,7.084m60.523-26.989-12.9,1.332,4.023-19.322L260.735,67.2l-11.353,54.54,15.013-1.55,4.184-20.1,12.9-1.332-4.183,20.1,15.013-1.55L303.659,62.77l-15.014,1.55Z"/></g></g></g><g transform="translate(425.338 510.911)"><g transform="translate(44.426 138.545)"><path class="a" d="M132.326,19.488l-6.184,13.757-1.058-13.009-5.321.549-6.588,13.809-.582-13.069-6.888.711,1.318,23.735,6.749-.7,6.508-13.426L121.308,44.5l6.749-.7,11.725-25.082Z" transform="translate(-41.969 -7.432)"/><path class="a" d="M157.213,42.3l6.716-.693,5.077-24.4-6.715.694Z" transform="translate(-62.421 -6.835)"/><path class="a" d="M179.825,15.59l-1.4,6.76L184,21.775,180.315,39.41l6.715-.693,3.683-17.635,5.567-.575,1.4-6.76Z" transform="translate(-70.845 -5.458)"/><path class="a" d="M221.66,19.384l-5.768.6,1.8-8.643-6.715.693-5.078,24.4,6.716-.694,1.872-8.991,5.768-.6-1.872,8.991,6.716-.693,5.077-24.4-6.715.694Z" transform="translate(-81.751 -3.989)"/><rect class="a" width="13.868" height="2.412" transform="translate(46.95 36.432) rotate(-5.825)"/><rect class="a" width="35.574" height="2.412" transform="translate(23.172 29.033) rotate(-5.815)"/><rect class="a" width="57.883" height="2.412" transform="translate(157.139 5.864) rotate(-5.815)"/><rect class="a" width="35.574" height="2.412" transform="translate(155.102 15.462) rotate(-5.815)"/><rect class="a" width="13.868" height="2.412" transform="translate(152.462 23.854) rotate(-5.814)"/><rect class="a" width="57.883" height="2.412" transform="translate(0 23.502) rotate(-5.81)"/></g><g transform="translate(0 0)"><g class="d"><path class="e" d="M27.608,69.222q-6.788.7-8.974-5.172L5.33,72.209a14.532,14.532,0,0,0,6.758,9.175Q17.2,84.4,25.8,83.514q9.2-.951,15.123-5.527a20.488,20.488,0,0,0,7.569-12.522,18.182,18.182,0,0,0,.161-7.336,8.324,8.324,0,0,0-2.825-4.816,17.556,17.556,0,0,0-4.26-2.648,33.133,33.133,0,0,0-5.311-1.625,31.627,31.627,0,0,1-6.683-2.13A2.229,2.229,0,0,1,28.314,44.3q.706-2.817,4.629-3.223,5.205-.538,6.972,4.464l13.006-8.2a16.221,16.221,0,0,0-6.971-8.505q-4.709-2.716-11.5-2.014A24.991,24.991,0,0,0,20.485,32.6a21.592,21.592,0,0,0-7.371,12.274Q10.453,57.728,24.3,61.254q.967.206,2.722.558t2.719.634c.643.188,1.337.421,2.077.7a3.09,3.09,0,0,1,1.539,1.061,2.036,2.036,0,0,1,.242,1.576q-.635,2.887-5.99,3.44m45.215,9.434a28.472,28.472,0,0,0,15.966-6.685,26.008,26.008,0,0,0,8.622-14.93l7.528-36.289L89.926,22.3,82.752,56.89q-1.211,6.075-7.733,6.749-6.367.657-5.162-5.43l7.171-34.573-15.013,1.55-7.531,36.3q-1.743,8.415,3.4,13.3t14.936,3.87m43.467-5.71,5.484-26.182,11.185,24.461,12.069-1.247,11.207-54.524L141.221,17l-5.327,26.182L124.711,18.71l-12.068,1.247L101.276,74.5Zm58.989-6.093a33.407,33.407,0,0,0,20.26-9.3,37.495,37.495,0,0,0,10.885-19.84q2.384-11.528-3.536-19t-16.33-6.394l-21.876,2.259-11.357,54.54Zm2.047-38.788,6.035-.623q4.6-.474,6.891,2.6t1.187,8.454a18.058,18.058,0,0,1-4.848,9.077,13.424,13.424,0,0,1-8.271,4.171l-6.082.628ZM217.9,62.451l3.274-7.2,15.238-1.574.347,6.825,15.765-1.628L246.978,6.081,229.327,7.9l-28.1,56.27Zm16.944-37.2.894,16.3-8.751.9Zm27.637,32.6L277.49,56.3l4.824-23.619L305.852,0,288.2,1.823,276.937,19.149l-4.479-15.7-15.8,1.633,10.705,29.241ZM39.561,116.35a18.129,18.129,0,0,0,7.561-11.3q1.538-7.02-2.743-11.038T31.5,90.881L11.279,92.969,0,147.5l22.329-2.306q8.9-.919,14.6-5.625a19.007,19.007,0,0,0,6.931-11.541q1.5-8.006-4.3-11.678M29.223,127.558a5.574,5.574,0,0,1-1.8,2.968,5.754,5.754,0,0,1-3.245,1.365l-6.336.654,1.643-7.794,7.314-.68q3.151.132,2.424,3.486m2.627-20.017a4.847,4.847,0,0,1-3.98,3.919l-5.811.677,1.551-7.327,4.979-.514a3.667,3.667,0,0,1,2.647.565q.986.737.614,2.68m47.027-21.63-21.1,2.18L46.394,142.633l15.014-1.55,3.6-17.188,4.848-.457,4.828,16.274,15.087-1.558-6.057-18.891a22.829,22.829,0,0,0,11.1-15.479q1.825-8.65-2.945-13.685T78.878,85.911m.861,18.971a6.845,6.845,0,0,1-2.062,3.873,6.048,6.048,0,0,1-3.783,1.608L67.7,111l2.12-10.128,6.034-.623a3.594,3.594,0,0,1,3.307.993,4.2,4.2,0,0,1,.577,3.637M132.35,80.464l-7.174,34.587q-1.211,6.075-7.733,6.749-6.367.658-5.162-5.429L119.453,81.8,104.44,83.347l-7.531,36.3q-1.743,8.417,3.4,13.3t14.936,3.87a28.471,28.471,0,0,0,15.966-6.684,26.011,26.011,0,0,0,8.622-14.93l7.528-36.289Zm45.968,20.883L167.135,76.871l-12.068,1.247L143.7,132.658l15.014-1.551,5.484-26.182,11.185,24.461,12.069-1.246,11.207-54.524-15.013,1.55Zm45.781,9.284q-5.431.56-8.005-2.947t-1.466-9.036a18.566,18.566,0,0,1,5.479-9.866,16.2,16.2,0,0,1,9.717-4.664q6.713-.693,9.6,4.575l14.081-8.85q-6.223-12.469-21.761-10.866a34.759,34.759,0,0,0-20.69,9.762,37.537,37.537,0,0,0-11.406,20.695q-2.426,12.6,4.021,20.093t18.741,6.221a32.624,32.624,0,0,0,14.119-4.85,35.018,35.018,0,0,0,10.8-10.607l-12.222-6.743q-4.748,6.438-11.01,7.084m60.523-26.989-12.9,1.332,4.023-19.322L260.735,67.2l-11.353,54.54,15.013-1.55,4.184-20.1,12.9-1.332-4.183,20.1,15.013-1.55L303.659,62.77l-15.014,1.55Z"/></g></g></g></g></svg>