<svg xmlns="http://www.w3.org/2000/svg" xmlns:xlink="http://www.w3.org/1999/xlink" width="248.466" height="135.358" viewBox="0 0 248.466 135.358"><defs><style>.a{fill:none;}.b,.c,.d,.f{fill-rule:evenodd;}.b{opacity:0.5;}.c{fill:#e3493d;}.e{clip-path:url(#a);}.f{fill:#fff;}</style><clipPath id="a"><rect class="a" width="218.466" height="105.358"/></clipPath></defs><g transform="translate(-140.035 -347.662)"><path class="b" d="M84.1,109.873q-4.849.5-6.41-3.694l-9.5,5.828a10.38,10.38,0,0,0,4.827,6.554q3.652,2.154,9.794,1.521a20.783,20.783,0,0,0,10.8-3.948,14.633,14.633,0,0,0,5.407-8.944,12.989,12.989,0,0,0,.115-5.24,5.946,5.946,0,0,0-2.018-3.44,12.544,12.544,0,0,0-3.043-1.892,23.7,23.7,0,0,0-3.794-1.161A22.566,22.566,0,0,1,85.5,93.936a1.592,1.592,0,0,1-.9-1.864q.5-2.012,3.307-2.3a4.336,4.336,0,0,1,4.98,3.188l9.29-5.857A11.587,11.587,0,0,0,97.2,81.026a13.351,13.351,0,0,0-8.214-1.439,17.852,17.852,0,0,0-9.975,4.127,15.425,15.425,0,0,0-5.265,8.767q-1.9,9.181,7.99,11.7.691.147,1.944.4t1.942.453c.459.134.955.3,1.484.5a2.206,2.206,0,0,1,1.1.758,1.453,1.453,0,0,1,.173,1.126q-.454,2.062-4.279,2.457m32.3,6.739a20.337,20.337,0,0,0,11.4-4.775,18.578,18.578,0,0,0,6.159-10.664l5.377-25.921-10.724,1.105-5.124,24.707q-.865,4.339-5.524,4.821-4.548.469-3.687-3.879L119.4,77.312l-10.723,1.107L103.3,104.348q-1.245,6.011,2.429,9.5t10.669,2.764m31.048-4.079,3.917-18.7,7.989,17.472,8.621-.891,8.005-38.946-10.722,1.1-3.805,18.7-7.988-17.48-8.62.891-8.119,38.959Zm42.135-4.352a23.863,23.863,0,0,0,14.471-6.643,26.781,26.781,0,0,0,7.775-14.172q1.7-8.234-2.526-13.571t-11.664-4.567l-15.626,1.614L173.894,109.8Zm1.462-27.706,4.311-.445a5.04,5.04,0,0,1,4.922,1.857q1.636,2.2.848,6.039a12.9,12.9,0,0,1-3.463,6.484,9.588,9.588,0,0,1-5.908,2.979l-4.344.449Zm28.983,24.561,2.339-5.143,10.884-1.124.248,4.875,11.261-1.163-3.961-37.71-12.608,1.3-20.071,40.193Zm12.1-26.572.639,11.643-6.251.643Zm19.741,23.286,10.721-1.108,3.446-16.871,16.813-23.344-12.609,1.3-8.045,12.376-3.2-11.214-11.286,1.166,7.646,20.886ZM92.636,143.537a12.95,12.95,0,0,0,5.4-8.072q1.1-5.014-1.959-7.884t-9.2-2.236l-14.443,1.491-8.057,38.951,15.95-1.647a19.035,19.035,0,0,0,10.429-4.018,13.576,13.576,0,0,0,4.951-8.243q1.071-5.719-3.072-8.342m-7.383,8.006a3.981,3.981,0,0,1-1.286,2.12,4.109,4.109,0,0,1-2.318.975l-4.526.467,1.173-5.567,5.224-.486q2.251.094,1.732,2.49m1.876-14.3a3.462,3.462,0,0,1-2.843,2.8l-4.151.483,1.108-5.234,3.557-.367a2.618,2.618,0,0,1,1.891.4q.7.526.439,1.914m33.591-15.45-15.071,1.557L97.517,162.31l10.724-1.107,2.571-12.277,3.463-.326,3.449,11.624,10.777-1.113-4.327-13.493a16.306,16.306,0,0,0,7.929-11.056q1.3-6.179-2.1-9.775t-9.279-2.991m.615,13.551a4.89,4.89,0,0,1-1.473,2.767,4.321,4.321,0,0,1-2.7,1.149l-4.424.455,1.514-7.234,4.31-.445a2.567,2.567,0,0,1,2.362.709,3,3,0,0,1,.412,2.6m37.58-17.44-5.124,24.705q-.865,4.339-5.524,4.821-4.548.47-3.687-3.878l5.123-24.694-10.724,1.105L133.6,145.892q-1.245,6.012,2.428,9.5t10.669,2.764a20.338,20.338,0,0,0,11.4-4.774,18.579,18.579,0,0,0,6.158-10.664l5.377-25.921Zm32.834,14.917-7.988-17.483-8.62.891-8.119,38.957,10.724-1.108,3.917-18.7,7.989,17.472,8.621-.89,8.005-38.946-10.724,1.107Zm32.7,6.632q-3.879.4-5.718-2.105a7.872,7.872,0,0,1-1.047-6.454,13.261,13.261,0,0,1,3.913-7.047,11.573,11.573,0,0,1,6.941-3.331q4.8-.5,6.857,3.268l10.058-6.321q-4.445-8.907-15.544-7.762a24.828,24.828,0,0,0-14.778,6.973,26.812,26.812,0,0,0-8.147,14.782q-1.733,9,2.872,14.352t13.387,4.444a23.3,23.3,0,0,0,10.085-3.464,25.016,25.016,0,0,0,7.714-7.577l-8.73-4.816q-3.391,4.6-7.864,5.06m43.231-19.278-9.214.951,2.874-13.8-10.72,1.105-8.109,38.957,10.724-1.107,2.989-14.357,9.214-.951-2.988,14.357,10.723-1.107,8.107-38.956-10.724,1.107Z" transform="translate(90.656 302.233)"/><g transform="translate(149.756 349.187)"><g transform="translate(0 5.278)"><g transform="translate(0 0)"><path class="c" d="M65.791,128.181q-4.849.5-6.41-3.694l-9.5,5.828a10.381,10.381,0,0,0,4.827,6.553q3.652,2.154,9.795,1.521a20.781,20.781,0,0,0,10.8-3.948,14.635,14.635,0,0,0,5.406-8.944,12.984,12.984,0,0,0,.115-5.24,5.946,5.946,0,0,0-2.018-3.44,12.543,12.543,0,0,0-3.043-1.892,23.661,23.661,0,0,0-3.794-1.161,22.6,22.6,0,0,1-4.773-1.521,1.592,1.592,0,0,1-.9-1.864q.5-2.012,3.307-2.3a4.336,4.336,0,0,1,4.98,3.189l9.29-5.857a11.584,11.584,0,0,0-4.979-6.075A13.348,13.348,0,0,0,70.678,97.9a17.85,17.85,0,0,0-9.975,4.127,15.424,15.424,0,0,0-5.265,8.767q-1.9,9.181,7.99,11.7.691.147,1.944.4t1.942.453q.689.2,1.484.5a2.208,2.208,0,0,1,1.1.758,1.455,1.455,0,0,1,.173,1.126q-.454,2.062-4.278,2.457m32.3,6.739a20.337,20.337,0,0,0,11.4-4.775,18.576,18.576,0,0,0,6.158-10.664l5.377-25.921-10.724,1.1-5.124,24.707q-.865,4.339-5.524,4.821-4.548.469-3.687-3.879l5.122-24.7L90.367,96.727l-5.379,25.929q-1.245,6.011,2.428,9.5t10.669,2.764m31.048-4.078,3.917-18.7,7.989,17.472,8.621-.891,8.005-38.946-10.722,1.1-3.805,18.7L135.151,92.1l-8.62.891-8.119,38.96Zm42.135-4.352a23.864,23.864,0,0,0,14.472-6.643,26.785,26.785,0,0,0,7.775-14.172q1.7-8.234-2.526-13.572t-11.664-4.567L163.7,89.15l-8.112,38.957Zm1.462-27.706,4.311-.445a5.039,5.039,0,0,1,4.922,1.857q1.636,2.2.848,6.039a12.9,12.9,0,0,1-3.463,6.484,9.589,9.589,0,0,1-5.908,2.979l-4.344.449Zm28.984,24.562,2.338-5.143,10.884-1.124.248,4.875,11.261-1.163-3.961-37.709-12.608,1.3L189.8,124.573Zm12.1-26.572.639,11.643-6.251.643Zm19.741,23.286,10.721-1.108,3.446-16.871,16.813-23.344-12.608,1.3-8.045,12.376-3.2-11.214L229.4,82.367l7.646,20.886ZM74.329,161.844a12.948,12.948,0,0,0,5.4-8.071q1.1-5.014-1.959-7.884t-9.2-2.237l-14.444,1.492-8.056,38.951,15.949-1.647a19.034,19.034,0,0,0,10.429-4.018,13.577,13.577,0,0,0,4.951-8.244q1.072-5.718-3.071-8.342m-7.384,8.006a3.982,3.982,0,0,1-1.286,2.12,4.11,4.11,0,0,1-2.318.975l-4.526.467,1.174-5.567,5.224-.486q2.25.094,1.731,2.49m1.877-14.3a3.462,3.462,0,0,1-2.843,2.8l-4.151.483,1.108-5.234,3.557-.367a2.62,2.62,0,0,1,1.891.4q.7.527.439,1.914m33.591-15.45L87.34,141.659,79.21,180.618l10.724-1.107,2.571-12.277,3.463-.326,3.448,11.624,10.777-1.113-4.326-13.494a16.306,16.306,0,0,0,7.928-11.056q1.3-6.179-2.1-9.775t-9.279-2.991m.615,13.551a4.89,4.89,0,0,1-1.473,2.766,4.32,4.32,0,0,1-2.7,1.149l-4.424.455,1.514-7.234,4.31-.445a2.567,2.567,0,0,1,2.362.709,3,3,0,0,1,.412,2.6m37.58-17.439-5.124,24.705q-.865,4.339-5.524,4.821-4.548.47-3.687-3.878l5.123-24.693-10.724,1.105L115.292,164.2q-1.245,6.012,2.429,9.5t10.668,2.764a20.335,20.335,0,0,0,11.4-4.774,18.58,18.58,0,0,0,6.158-10.664l5.377-25.921Zm32.834,14.917-7.988-17.483-8.62.891-8.119,38.957,10.724-1.108,3.917-18.7,7.989,17.472,8.621-.89,8.005-38.946-10.724,1.107Zm32.7,6.631q-3.88.4-5.718-2.1a7.874,7.874,0,0,1-1.047-6.454,13.263,13.263,0,0,1,3.913-7.047,11.571,11.571,0,0,1,6.941-3.331q4.8-.5,6.857,3.268l10.058-6.322q-4.445-8.906-15.544-7.761a24.828,24.828,0,0,0-14.779,6.973,26.811,26.811,0,0,0-8.147,14.782q-1.733,9,2.872,14.352t13.387,4.443a23.3,23.3,0,0,0,10.085-3.464,25.011,25.011,0,0,0,7.714-7.576l-8.73-4.816q-3.392,4.6-7.864,5.06m43.231-19.278-9.214.951,2.874-13.8-10.72,1.1L224.2,165.694l10.723-1.107,2.989-14.357,9.214-.951-2.988,14.357,10.724-1.107,8.107-38.956-10.724,1.107Z" transform="translate(-46.071 -78.737)"/></g></g><g transform="translate(2.615 2.663)"><g transform="translate(0 0)"><path class="d" d="M74.863,119.109q-4.849.5-6.41-3.694l-9.5,5.828a10.381,10.381,0,0,0,4.827,6.553q3.652,2.154,9.795,1.521a20.781,20.781,0,0,0,10.8-3.948,14.634,14.634,0,0,0,5.406-8.944,12.984,12.984,0,0,0,.115-5.24,5.946,5.946,0,0,0-2.018-3.44,12.543,12.543,0,0,0-3.043-1.892,23.656,23.656,0,0,0-3.794-1.161,22.6,22.6,0,0,1-4.773-1.521,1.592,1.592,0,0,1-.9-1.864q.5-2.012,3.307-2.3a4.336,4.336,0,0,1,4.98,3.189l9.29-5.857a11.585,11.585,0,0,0-4.979-6.075,13.348,13.348,0,0,0-8.214-1.439,17.85,17.85,0,0,0-9.975,4.127,15.423,15.423,0,0,0-5.265,8.767q-1.9,9.181,7.99,11.7.691.147,1.944.4t1.942.453q.689.2,1.484.5a2.208,2.208,0,0,1,1.1.758,1.455,1.455,0,0,1,.173,1.126q-.454,2.062-4.278,2.457m32.3,6.739a20.337,20.337,0,0,0,11.4-4.775,18.576,18.576,0,0,0,6.158-10.664L130.1,84.489l-10.724,1.1L114.252,110.3q-.865,4.339-5.524,4.821-4.548.469-3.687-3.879l5.122-24.7L99.439,87.655,94.06,113.584q-1.245,6.011,2.428,9.5t10.669,2.764m31.048-4.078,3.917-18.7,7.989,17.472,8.621-.891L166.738,80.7l-10.722,1.1-3.805,18.7-7.988-17.48-8.62.891-8.12,38.96Zm42.135-4.352a23.862,23.862,0,0,0,14.471-6.643A26.784,26.784,0,0,0,202.587,96.6q1.7-8.234-2.526-13.572T188.4,78.464l-15.626,1.614-8.112,38.957ZM181.8,89.711l4.311-.445a5.039,5.039,0,0,1,4.922,1.857q1.636,2.2.848,6.039a12.9,12.9,0,0,1-3.463,6.484,9.589,9.589,0,0,1-5.908,2.979l-4.344.449Zm28.984,24.562,2.338-5.143,10.884-1.124.248,4.875,11.261-1.163-3.961-37.709-12.608,1.3L198.877,115.5Zm12.1-26.572.639,11.643-6.251.643Zm19.741,23.286,10.721-1.108L256.8,93.009l16.813-23.344L261,70.967l-8.045,12.376-3.2-11.214L238.471,73.3l7.646,20.886ZM83.4,152.772a12.949,12.949,0,0,0,5.4-8.071q1.1-5.014-1.959-7.884t-9.2-2.236L63.2,136.072l-8.056,38.951,15.949-1.647a19.034,19.034,0,0,0,10.429-4.018,13.577,13.577,0,0,0,4.951-8.244q1.072-5.718-3.071-8.341m-7.384,8.006a3.982,3.982,0,0,1-1.286,2.12,4.111,4.111,0,0,1-2.318.975l-4.526.467,1.174-5.567,5.224-.485q2.251.094,1.731,2.49m1.877-14.3a3.462,3.462,0,0,1-2.843,2.8l-4.151.484,1.108-5.234,3.556-.367a2.621,2.621,0,0,1,1.891.4q.7.527.439,1.914m33.591-15.45-15.072,1.557-8.131,38.959,10.724-1.107,2.571-12.277,3.463-.326,3.448,11.624,10.777-1.113-4.326-13.494a16.306,16.306,0,0,0,7.928-11.056q1.3-6.178-2.1-9.775t-9.279-2.991m.615,13.551a4.89,4.89,0,0,1-1.473,2.766,4.32,4.32,0,0,1-2.7,1.149l-4.424.455,1.514-7.234,4.31-.445a2.568,2.568,0,0,1,2.362.709,3,3,0,0,1,.412,2.6m37.58-17.439-5.124,24.705q-.865,4.339-5.524,4.821-4.548.47-3.687-3.878l5.123-24.694L129.743,129.2l-5.379,25.929q-1.245,6.012,2.429,9.5t10.668,2.764a20.336,20.336,0,0,0,11.4-4.774,18.58,18.58,0,0,0,6.158-10.664l5.377-25.921Zm32.834,14.917-7.988-17.483-8.62.891-8.119,38.957,10.724-1.108,3.917-18.7,7.989,17.472,8.621-.89,8.005-38.946-10.724,1.107Zm32.7,6.631q-3.88.4-5.718-2.1a7.874,7.874,0,0,1-1.047-6.454,13.263,13.263,0,0,1,3.913-7.047,11.571,11.571,0,0,1,6.941-3.331q4.8-.5,6.857,3.268l10.058-6.322q-4.445-8.906-15.544-7.761a24.828,24.828,0,0,0-14.779,6.973,26.811,26.811,0,0,0-8.147,14.782q-1.733,9,2.872,14.352t13.387,4.443a23.3,23.3,0,0,0,10.085-3.464,25.012,25.012,0,0,0,7.714-7.576l-8.73-4.816q-3.392,4.6-7.864,5.06m43.231-19.278-9.214.951,2.874-13.8-10.72,1.1-8.109,38.957L244,155.515l2.989-14.357,9.214-.951-2.988,14.357,10.724-1.107,8.107-38.956-10.724,1.107Z" transform="translate(-55.143 -69.665)"/></g></g><g transform="translate(5.278 0)"><g class="e"><g transform="translate(0 0)"><path class="f" d="M84.1,109.873q-4.849.5-6.41-3.694l-9.5,5.828a10.38,10.38,0,0,0,4.827,6.554q3.652,2.154,9.794,1.521a20.783,20.783,0,0,0,10.8-3.948,14.633,14.633,0,0,0,5.407-8.944,12.989,12.989,0,0,0,.115-5.24,5.946,5.946,0,0,0-2.018-3.44,12.544,12.544,0,0,0-3.043-1.892,23.7,23.7,0,0,0-3.794-1.161A22.566,22.566,0,0,1,85.5,93.936a1.592,1.592,0,0,1-.9-1.864q.5-2.012,3.307-2.3a4.336,4.336,0,0,1,4.98,3.188l9.29-5.857A11.587,11.587,0,0,0,97.2,81.026a13.351,13.351,0,0,0-8.214-1.439,17.852,17.852,0,0,0-9.975,4.127,15.425,15.425,0,0,0-5.265,8.767q-1.9,9.181,7.99,11.7.691.147,1.944.4t1.942.453c.459.134.955.3,1.484.5a2.206,2.206,0,0,1,1.1.758,1.453,1.453,0,0,1,.173,1.126q-.454,2.062-4.279,2.457m32.3,6.739a20.337,20.337,0,0,0,11.4-4.775,18.578,18.578,0,0,0,6.159-10.664l5.377-25.921-10.724,1.105-5.124,24.707q-.865,4.339-5.524,4.821-4.548.469-3.687-3.879L119.4,77.312l-10.723,1.107L103.3,104.348q-1.245,6.011,2.429,9.5t10.669,2.764m31.048-4.079,3.917-18.7,7.989,17.472,8.621-.891,8.005-38.946-10.722,1.1-3.805,18.7-7.988-17.48-8.62.891-8.119,38.959Zm42.135-4.352a23.863,23.863,0,0,0,14.471-6.643,26.781,26.781,0,0,0,7.775-14.172q1.7-8.234-2.526-13.571t-11.664-4.567l-15.626,1.614L173.894,109.8Zm1.462-27.706,4.311-.445a5.04,5.04,0,0,1,4.922,1.857q1.636,2.2.848,6.039a12.9,12.9,0,0,1-3.463,6.484,9.588,9.588,0,0,1-5.908,2.979l-4.344.449Zm28.983,24.561,2.339-5.143,10.884-1.124.248,4.875,11.261-1.163-3.961-37.71-12.608,1.3-20.071,40.193Zm12.1-26.572.639,11.643-6.251.643Zm19.741,23.286,10.721-1.108,3.446-16.871,16.813-23.344-12.609,1.3-8.045,12.376-3.2-11.214-11.286,1.166,7.646,20.886ZM92.636,143.537a12.95,12.95,0,0,0,5.4-8.072q1.1-5.014-1.959-7.884t-9.2-2.236l-14.443,1.491-8.057,38.951,15.95-1.647a19.035,19.035,0,0,0,10.429-4.018,13.576,13.576,0,0,0,4.951-8.243q1.071-5.719-3.072-8.342m-7.383,8.006a3.981,3.981,0,0,1-1.286,2.12,4.109,4.109,0,0,1-2.318.975l-4.526.467,1.173-5.567,5.224-.486q2.251.094,1.732,2.49m1.876-14.3a3.462,3.462,0,0,1-2.843,2.8l-4.151.483,1.108-5.234,3.557-.367a2.618,2.618,0,0,1,1.891.4q.7.526.439,1.914m33.591-15.45-15.071,1.557L97.517,162.31l10.724-1.107,2.571-12.277,3.463-.326,3.449,11.624,10.777-1.113-4.327-13.493a16.306,16.306,0,0,0,7.929-11.056q1.3-6.179-2.1-9.775t-9.279-2.991m.615,13.551a4.89,4.89,0,0,1-1.473,2.767,4.321,4.321,0,0,1-2.7,1.149l-4.424.455,1.514-7.234,4.31-.445a2.567,2.567,0,0,1,2.362.709,3,3,0,0,1,.412,2.6m37.58-17.44-5.124,24.705q-.865,4.339-5.524,4.821-4.548.47-3.687-3.878l5.123-24.694-10.724,1.105L133.6,145.892q-1.245,6.012,2.428,9.5t10.669,2.764a20.338,20.338,0,0,0,11.4-4.774,18.579,18.579,0,0,0,6.158-10.664l5.377-25.921Zm32.834,14.917-7.988-17.483-8.62.891-8.119,38.957,10.724-1.108,3.917-18.7,7.989,17.472,8.621-.89,8.005-38.946-10.724,1.107Zm32.7,6.632q-3.879.4-5.718-2.105a7.872,7.872,0,0,1-1.047-6.454,13.261,13.261,0,0,1,3.913-7.047,11.573,11.573,0,0,1,6.941-3.331q4.8-.5,6.857,3.268l10.058-6.321q-4.445-8.907-15.544-7.762a24.828,24.828,0,0,0-14.778,6.973,26.812,26.812,0,0,0-8.147,14.782q-1.733,9,2.872,14.352t13.387,4.444a23.3,23.3,0,0,0,10.085-3.464,25.016,25.016,0,0,0,7.714-7.577l-8.73-4.816q-3.391,4.6-7.864,5.06m43.231-19.278-9.214.951,2.874-13.8-10.72,1.105-8.109,38.957,10.724-1.107,2.989-14.357,9.214-.951-2.988,14.357,10.723-1.107,8.107-38.956-10.724,1.107Z" transform="translate(-64.378 -60.429)"/></g></g></g></g></g></svg>