<svg xmlns="http://www.w3.org/2000/svg" xmlns:xlink="http://www.w3.org/1999/xlink" width="340.669" height="224.256" viewBox="0 0 340.669 224.256"><defs><style>.a{fill:#fff;}.b{fill:none;}.c,.j{fill:#e3493d;}.d{opacity:0.6;}.e{fill:#f7db00;}.f{clip-path:url(#a);}.g{clip-path:url(#b);}.h,.j{fill-rule:evenodd;}.i{clip-path:url(#c);}</style><clipPath id="a"><rect class="a" width="321.301" height="220"/></clipPath><clipPath id="b"><rect class="b" width="202.777" height="97.792"/></clipPath><clipPath id="c"><rect class="c" width="202.777" height="97.792"/></clipPath></defs><g transform="translate(-132.481 -857)"><g transform="translate(175.658 22)"><g transform="translate(-43.177 835)"><g class="d" transform="translate(0 10.713)"><path class="e" d="M2396.337,1316.461l8.9-11.743-18.031,4.6,21.3-12.944-16.528,3.148,11.788-13.65-18.32,2.318,8.935-11.323-15.253,3.194,5.263-7.194-12.794,7.194,4.167-6.521-11.664,3.327,24.57-17.23-21.6,5.313,9.822-10.342-14.212,1.561,208.957-116.654-7.617,11.359,13.33-1.229-15.063,14.151,17.766-3.5-6.339,9.578,18.506-4.766-10.165,12.408,23.241-9.526-9.719,10.9H2608.6l-13.728,14.484,18.237-8.482-20.892,16.636,13.076-1.719Z" transform="translate(-2362.678 -1139.514)"/><path class="e" d="M2396.337,1316.461l8.9-11.743-18.031,4.6,21.3-12.944-16.528,3.148,11.788-13.65-18.32,2.318,8.935-11.323-15.253,3.194,5.263-7.194-12.794,7.194,4.167-6.521-11.664,3.327,24.57-17.23-21.6,5.313,9.822-10.342-14.212,1.561,208.957-116.654-7.617,11.359,13.33-1.229-15.063,14.151,17.766-3.5-6.339,9.578,18.506-4.766-10.165,12.408,23.241-9.526-9.719,10.9H2608.6l-13.728,14.484,18.237-8.482-20.892,16.636,13.076-1.719Z" transform="translate(-2272.441 -1102.917)"/></g><g class="f" transform="translate(10.58)"><g transform="translate(-115.391 180.096) rotate(-30)"><circle class="a" cx="6.905" cy="6.905" r="6.905"/><circle class="a" cx="6.905" cy="6.905" r="6.905" transform="translate(331.448)"/><circle class="a" cx="6.905" cy="6.905" r="6.905" transform="translate(331.448 165.724)"/><circle class="a" cx="6.905" cy="6.905" r="6.905" transform="translate(165.724)"/><circle class="a" cx="6.905" cy="6.905" r="6.905" transform="translate(27.621)"/><circle class="a" cx="6.905" cy="6.905" r="6.905" transform="translate(359.068)"/><circle class="a" cx="6.905" cy="6.905" r="6.905" transform="translate(359.068 165.724)"/><circle class="a" cx="6.905" cy="6.905" r="6.905" transform="translate(193.344)"/><circle class="a" cx="6.905" cy="6.905" r="6.905" transform="translate(55.241)"/><circle class="a" cx="6.905" cy="6.905" r="6.905" transform="translate(386.689)"/><circle class="a" cx="6.905" cy="6.905" r="6.905" transform="translate(386.689 165.724)"/><circle class="a" cx="6.905" cy="6.905" r="6.905" transform="translate(0 27.621)"/><circle class="a" cx="6.905" cy="6.905" r="6.905" transform="translate(331.448 27.621)"/><circle class="a" cx="6.905" cy="6.905" r="6.905" transform="translate(331.448 193.344)"/><circle class="a" cx="6.905" cy="6.905" r="6.905" transform="translate(165.724 27.621)"/><circle class="a" cx="6.905" cy="6.905" r="6.905" transform="translate(27.621 27.621)"/><circle class="a" cx="6.905" cy="6.905" r="6.905" transform="translate(359.068 27.621)"/><circle class="a" cx="6.905" cy="6.905" r="6.905" transform="translate(359.068 193.344)"/><circle class="a" cx="6.905" cy="6.905" r="6.905" transform="translate(55.241 27.621)"/><circle class="a" cx="6.905" cy="6.905" r="6.905" transform="translate(386.689 27.621)"/><circle class="a" cx="6.905" cy="6.905" r="6.905" transform="translate(386.689 193.344)"/><circle class="a" cx="6.905" cy="6.905" r="6.905" transform="translate(0 55.241)"/><circle class="a" cx="6.905" cy="6.905" r="6.905" transform="translate(331.448 55.241)"/><circle class="a" cx="6.905" cy="6.905" r="6.905" transform="translate(331.448 220.965)"/><circle class="a" cx="6.905" cy="6.905" r="6.905" transform="translate(165.724 55.241)"/><circle class="a" cx="6.905" cy="6.905" r="6.905" transform="translate(27.621 55.241)"/><circle class="a" cx="6.905" cy="6.905" r="6.905" transform="translate(359.068 55.241)"/><circle class="a" cx="6.905" cy="6.905" r="6.905" transform="translate(359.068 220.965)"/><circle class="a" cx="6.905" cy="6.905" r="6.905" transform="translate(193.344 55.241)"/><circle class="a" cx="6.905" cy="6.905" r="6.905" transform="translate(55.241 55.241)"/><circle class="a" cx="6.905" cy="6.905" r="6.905" transform="translate(386.689 55.241)"/><circle class="a" cx="6.905" cy="6.905" r="6.905" transform="translate(386.689 220.965)"/><circle class="a" cx="6.905" cy="6.905" r="6.905" transform="translate(82.862)"/><circle class="a" cx="6.905" cy="6.905" r="6.905" transform="translate(414.309)"/><circle class="a" cx="6.905" cy="6.905" r="6.905" transform="translate(414.309 165.724)"/><circle class="a" cx="6.905" cy="6.905" r="6.905" transform="translate(110.483)"/><circle class="a" cx="6.905" cy="6.905" r="6.905" transform="translate(441.93)"/><circle class="a" cx="6.905" cy="6.905" r="6.905" transform="translate(441.93 165.724)"/><circle class="a" cx="6.905" cy="6.905" r="6.905" transform="translate(276.206)"/><circle class="a" cx="6.905" cy="6.905" r="6.905" transform="translate(276.206 165.724)"/><circle class="a" cx="6.905" cy="6.905" r="6.905" transform="translate(138.103)"/><circle class="a" cx="6.905" cy="6.905" r="6.905" transform="translate(469.551)"/><circle class="a" cx="6.905" cy="6.905" r="6.905" transform="translate(469.551 165.724)"/><circle class="a" cx="6.905" cy="6.905" r="6.905" transform="translate(303.827)"/><circle class="a" cx="6.905" cy="6.905" r="6.905" transform="translate(303.827 165.724)"/><circle class="a" cx="6.905" cy="6.905" r="6.905" transform="translate(82.862 27.621)"/><circle class="a" cx="6.905" cy="6.905" r="6.905" transform="translate(414.309 27.621)"/><circle class="a" cx="6.905" cy="6.905" r="6.905" transform="translate(414.309 193.344)"/><circle class="a" cx="6.905" cy="6.905" r="6.905" transform="translate(110.483 27.621)"/><circle class="a" cx="6.905" cy="6.905" r="6.905" transform="translate(441.93 27.621)"/><circle class="a" cx="6.905" cy="6.905" r="6.905" transform="translate(441.93 193.344)"/><circle class="a" cx="6.905" cy="6.905" r="6.905" transform="translate(276.206 193.344)"/><circle class="a" cx="6.905" cy="6.905" r="6.905" transform="translate(138.103 27.621)"/><circle class="a" cx="6.905" cy="6.905" r="6.905" transform="translate(469.551 27.621)"/><circle class="a" cx="6.905" cy="6.905" r="6.905" transform="translate(469.551 193.344)"/><circle class="a" cx="6.905" cy="6.905" r="6.905" transform="translate(303.827 193.344)"/><circle class="a" cx="6.905" cy="6.905" r="6.905" transform="translate(82.862 55.241)"/><circle class="a" cx="6.905" cy="6.905" r="6.905" transform="translate(414.309 55.241)"/><circle class="a" cx="6.905" cy="6.905" r="6.905" transform="translate(414.309 220.965)"/><circle class="a" cx="6.905" cy="6.905" r="6.905" transform="translate(110.483 55.241)"/><circle class="a" cx="6.905" cy="6.905" r="6.905" transform="translate(441.93 55.241)"/><circle class="a" cx="6.905" cy="6.905" r="6.905" transform="translate(441.93 220.965)"/><circle class="a" cx="6.905" cy="6.905" r="6.905" transform="translate(138.103 55.241)"/><circle class="a" cx="6.905" cy="6.905" r="6.905" transform="translate(469.551 55.241)"/><circle class="a" cx="6.905" cy="6.905" r="6.905" transform="translate(469.551 220.965)"/><circle class="a" cx="6.905" cy="6.905" r="6.905" transform="translate(303.827 220.965)"/><circle class="a" cx="6.905" cy="6.905" r="6.905" transform="translate(331.448 82.862)"/><circle class="a" cx="6.905" cy="6.905" r="6.905" transform="translate(331.448 248.586)"/><circle class="a" cx="6.905" cy="6.905" r="6.905" transform="translate(165.724 82.862)"/><circle class="a" cx="6.905" cy="6.905" r="6.905" transform="translate(359.068 82.862)"/><circle class="a" cx="6.905" cy="6.905" r="6.905" transform="translate(359.068 248.586)"/><circle class="a" cx="6.905" cy="6.905" r="6.905" transform="translate(193.344 82.862)"/><circle class="a" cx="6.905" cy="6.905" r="6.905" transform="translate(55.241 82.862)"/><circle class="a" cx="6.905" cy="6.905" r="6.905" transform="translate(386.689 82.862)"/><circle class="a" cx="6.905" cy="6.905" r="6.905" transform="translate(386.689 248.586)"/><circle class="a" cx="6.905" cy="6.905" r="6.905" transform="translate(220.965 82.862)"/><circle class="a" cx="6.905" cy="6.905" r="6.905" transform="translate(331.448 110.483)"/><circle class="a" cx="6.905" cy="6.905" r="6.905" transform="translate(165.724 110.483)"/><circle class="a" cx="6.905" cy="6.905" r="6.905" transform="translate(359.068 110.483)"/><circle class="a" cx="6.905" cy="6.905" r="6.905" transform="translate(193.344 110.483)"/><circle class="a" cx="6.905" cy="6.905" r="6.905" transform="translate(386.689 110.483)"/><circle class="a" cx="6.905" cy="6.905" r="6.905" transform="translate(386.689 276.206)"/><circle class="a" cx="6.905" cy="6.905" r="6.905" transform="translate(220.965 110.483)"/><circle class="a" cx="6.905" cy="6.905" r="6.905" transform="translate(331.448 138.103)"/><circle class="a" cx="6.905" cy="6.905" r="6.905" transform="translate(165.724 138.103)"/><circle class="a" cx="6.905" cy="6.905" r="6.905" transform="translate(359.068 138.103)"/><circle class="a" cx="6.905" cy="6.905" r="6.905" transform="translate(193.344 138.103)"/><circle class="a" cx="6.905" cy="6.905" r="6.905" transform="translate(386.689 138.103)"/><circle class="a" cx="6.905" cy="6.905" r="6.905" transform="translate(220.965 138.103)"/><circle class="a" cx="6.905" cy="6.905" r="6.905" transform="translate(82.862 82.862)"/><circle class="a" cx="6.905" cy="6.905" r="6.905" transform="translate(414.309 82.862)"/><circle class="a" cx="6.905" cy="6.905" r="6.905" transform="translate(414.309 248.586)"/><circle class="a" cx="6.905" cy="6.905" r="6.905" transform="translate(248.586 82.862)"/><circle class="a" cx="6.905" cy="6.905" r="6.905" transform="translate(110.483 82.862)"/><circle class="a" cx="6.905" cy="6.905" r="6.905" transform="translate(441.93 82.862)"/><circle class="a" cx="6.905" cy="6.905" r="6.905" transform="translate(441.93 248.586)"/><circle class="a" cx="6.905" cy="6.905" r="6.905" transform="translate(138.103 82.862)"/><circle class="a" cx="6.905" cy="6.905" r="6.905" transform="translate(469.551 82.862)"/><circle class="a" cx="6.905" cy="6.905" r="6.905" transform="translate(469.551 248.586)"/><circle class="a" cx="6.905" cy="6.905" r="6.905" transform="translate(303.827 82.862)"/><circle class="a" cx="6.905" cy="6.905" r="6.905" transform="translate(414.309 110.483)"/><circle class="a" cx="6.905" cy="6.905" r="6.905" transform="translate(414.309 276.206)"/><circle class="a" cx="6.905" cy="6.905" r="6.905" transform="translate(248.586 110.483)"/><circle class="a" cx="6.905" cy="6.905" r="6.905" transform="translate(110.483 110.483)"/><circle class="a" cx="6.905" cy="6.905" r="6.905" transform="translate(441.93 110.483)"/><circle class="a" cx="6.905" cy="6.905" r="6.905" transform="translate(441.93 276.206)"/><circle class="a" cx="6.905" cy="6.905" r="6.905" transform="translate(276.206 110.483)"/><circle class="a" cx="6.905" cy="6.905" r="6.905" transform="translate(138.103 110.483)"/><circle class="a" cx="6.905" cy="6.905" r="6.905" transform="translate(469.551 110.483)"/><circle class="a" cx="6.905" cy="6.905" r="6.905" transform="translate(469.551 276.206)"/><circle class="a" cx="6.905" cy="6.905" r="6.905" transform="translate(303.827 110.483)"/><circle class="a" cx="6.905" cy="6.905" r="6.905" transform="translate(414.309 138.103)"/><circle class="a" cx="6.905" cy="6.905" r="6.905" transform="translate(248.586 138.103)"/><circle class="a" cx="6.905" cy="6.905" r="6.905" transform="translate(441.93 138.103)"/><circle class="a" cx="6.905" cy="6.905" r="6.905" transform="translate(441.93 303.827)"/><circle class="a" cx="6.905" cy="6.905" r="6.905" transform="translate(276.206 138.103)"/><circle class="a" cx="6.905" cy="6.905" r="6.905" transform="translate(138.103 138.103)"/><circle class="a" cx="6.905" cy="6.905" r="6.905" transform="translate(469.551 138.103)"/><circle class="a" cx="6.905" cy="6.905" r="6.905" transform="translate(469.551 303.827)"/><circle class="a" cx="6.905" cy="6.905" r="6.905" transform="translate(303.827 138.103)"/></g></g></g></g><g transform="translate(121.271 225.753)"><g transform="translate(66.485 674.122)"><g class="g"><g transform="translate(0 0)"><path class="h" d="M84.789,724.248q-4.5.464-5.95-3.429l-8.82,5.41a9.636,9.636,0,0,0,4.481,6.083q3.389,2,9.091,1.412a19.289,19.289,0,0,0,10.027-3.665,13.58,13.58,0,0,0,5.018-8.3,12.055,12.055,0,0,0,.107-4.864,5.516,5.516,0,0,0-1.873-3.193,11.633,11.633,0,0,0-2.824-1.756,21.922,21.922,0,0,0-3.521-1.077,20.972,20.972,0,0,1-4.43-1.412,1.478,1.478,0,0,1-.836-1.731q.468-1.867,3.069-2.137a4.025,4.025,0,0,1,4.622,2.96l8.623-5.437a10.755,10.755,0,0,0-4.622-5.639,12.39,12.39,0,0,0-7.624-1.335,16.567,16.567,0,0,0-9.259,3.831,14.316,14.316,0,0,0-4.887,8.138q-1.764,8.522,7.416,10.86.641.137,1.8.37t1.8.42q.64.187,1.377.464a2.049,2.049,0,0,1,1.02.7,1.35,1.35,0,0,1,.161,1.045q-.421,1.914-3.971,2.281m29.977,6.254a18.874,18.874,0,0,0,10.585-4.432,17.24,17.24,0,0,0,5.716-9.9l4.991-24.059-9.954,1.026-4.756,22.933q-.8,4.027-5.127,4.475-4.221.436-3.422-3.6l4.754-22.922-9.953,1.028-4.993,24.067q-1.156,5.579,2.254,8.818t9.9,2.566m28.818-3.786,3.636-17.358,7.416,16.217,8-.827,7.43-36.149-9.952,1.025-3.532,17.359-7.414-16.225-8,.827-7.536,36.161Zm39.109-4.04a22.147,22.147,0,0,0,13.432-6.166,24.857,24.857,0,0,0,7.217-13.154q1.58-7.643-2.344-12.6t-10.827-4.239l-14.5,1.5-7.53,36.159Zm1.357-25.716,4-.413a4.678,4.678,0,0,1,4.569,1.724q1.518,2.038.787,5.6a11.975,11.975,0,0,1-3.214,6.018,8.9,8.9,0,0,1-5.484,2.766l-4.032.416Zm26.9,22.8,2.171-4.774,10.1-1.043.23,4.525,10.452-1.08-3.677-35-11.7,1.206L199.9,720.9ZM222.184,695.1l.593,10.807-5.8.6Zm18.323,21.614,9.951-1.029,3.2-15.659,15.605-21.667-11.7,1.209-7.467,11.487-2.969-10.409-10.475,1.083,7.1,19.386ZM92.713,755.493A12.02,12.02,0,0,0,97.727,748q1.02-4.654-1.819-7.318t-8.539-2.076l-13.406,1.385-7.478,36.154,14.8-1.529a17.662,17.662,0,0,0,9.679-3.729,12.6,12.6,0,0,0,4.6-7.652q.995-5.307-2.851-7.742m-6.853,7.431a3.694,3.694,0,0,1-1.193,1.968,3.815,3.815,0,0,1-2.151.9l-4.2.434,1.09-5.167,4.849-.451q2.089.088,1.607,2.312M87.6,749.652a3.213,3.213,0,0,1-2.639,2.6l-3.853.449,1.029-4.858,3.3-.341a2.432,2.432,0,0,1,1.755.374q.654.489.407,1.777m31.178-14.341-13.989,1.445-7.547,36.162,9.954-1.028,2.387-11.4,3.214-.3,3.2,10.79,10-1.033-4.016-12.525a15.135,15.135,0,0,0,7.359-10.263q1.21-5.735-1.952-9.073t-8.613-2.776m.571,12.577a4.541,4.541,0,0,1-1.367,2.568,4.012,4.012,0,0,1-2.508,1.066l-4.107.422,1.406-6.714,4-.413a2.382,2.382,0,0,1,2.192.658,2.784,2.784,0,0,1,.383,2.411M154.232,731.7l-4.757,22.931q-.8,4.028-5.127,4.475-4.221.436-3.422-3.6l4.755-22.92-9.954,1.026-4.993,24.067q-1.156,5.581,2.254,8.818t9.9,2.566a18.875,18.875,0,0,0,10.585-4.431,17.245,17.245,0,0,0,5.716-9.9l4.991-24.059Zm30.476,13.845-7.414-16.227-8,.827-7.536,36.16,9.954-1.028,3.636-17.359,7.416,16.218,8-.826,7.43-36.149-9.953,1.028ZM215.06,751.7q-3.6.371-5.307-1.954a7.308,7.308,0,0,1-.972-5.991,12.308,12.308,0,0,1,3.633-6.541,10.739,10.739,0,0,1,6.442-3.092q4.451-.46,6.365,3.033l9.336-5.867q-4.126-8.267-14.427-7.2a23.044,23.044,0,0,0-13.717,6.472,24.886,24.886,0,0,0-7.562,13.72q-1.609,8.354,2.666,13.322t12.425,4.124a21.627,21.627,0,0,0,9.361-3.215,23.219,23.219,0,0,0,7.16-7.032l-8.1-4.471q-3.148,4.268-7.3,4.7m40.126-17.893-8.553.883,2.668-12.81-9.951,1.026-7.527,36.16,9.954-1.028,2.774-13.326,8.552-.883-2.773,13.326,9.953-1.027,7.525-36.158L257.854,721Z" transform="translate(-66.485 -678.354)"/></g></g></g><g transform="translate(69.361 671.246)"><g transform="translate(0 0)"><g class="i"><g transform="translate(0 0)"><path class="j" d="M91.9,717.14q-4.5.464-5.949-3.429l-8.82,5.409a9.633,9.633,0,0,0,4.48,6.083q3.39,2,9.091,1.412a19.288,19.288,0,0,0,10.026-3.665,13.583,13.583,0,0,0,5.018-8.3,12.062,12.062,0,0,0,.107-4.864,5.521,5.521,0,0,0-1.873-3.193,11.635,11.635,0,0,0-2.824-1.756,21.964,21.964,0,0,0-3.521-1.077,20.986,20.986,0,0,1-4.431-1.412,1.478,1.478,0,0,1-.836-1.731q.468-1.867,3.069-2.137a4.025,4.025,0,0,1,4.622,2.959L108.679,696a10.752,10.752,0,0,0-4.622-5.639,12.393,12.393,0,0,0-7.624-1.336,16.569,16.569,0,0,0-9.259,3.831A14.314,14.314,0,0,0,82.288,701q-1.764,8.522,7.416,10.86.641.137,1.8.37t1.8.42q.64.187,1.377.464a2.048,2.048,0,0,1,1.02.7,1.35,1.35,0,0,1,.16,1.045q-.421,1.914-3.971,2.281m29.977,6.254a18.878,18.878,0,0,0,10.585-4.432,17.243,17.243,0,0,0,5.716-9.9l4.991-24.059-9.954,1.026-4.756,22.933q-.8,4.027-5.127,4.475-4.222.435-3.423-3.6l4.755-22.922-9.954,1.028-4.993,24.066q-1.156,5.579,2.254,8.818t9.9,2.566m28.818-3.786,3.636-17.359,7.416,16.218,8-.827,7.43-36.149-9.952,1.025-3.532,17.359-7.414-16.225-8,.827-7.536,36.161Zm39.109-4.04a22.149,22.149,0,0,0,13.432-6.166,24.858,24.858,0,0,0,7.217-13.154q1.58-7.643-2.344-12.6t-10.827-4.239l-14.5,1.5-7.53,36.159Zm1.357-25.716,4-.413a4.679,4.679,0,0,1,4.569,1.724q1.519,2.038.787,5.6a11.974,11.974,0,0,1-3.214,6.018,8.9,8.9,0,0,1-5.484,2.766l-4.032.416Zm26.9,22.8,2.17-4.774,10.1-1.043.23,4.525,10.452-1.079-3.677-35-11.7,1.206L207,713.79Zm11.234-24.663.593,10.807-5.8.6ZM247.615,709.6l9.951-1.028,3.2-15.659,15.605-21.667-11.7,1.209L257.2,683.942l-2.969-10.409-10.475,1.082,7.1,19.387ZM99.821,748.385a12.02,12.02,0,0,0,5.013-7.492q1.02-4.654-1.819-7.318T94.477,731.5l-13.406,1.385-7.478,36.153,14.8-1.529a17.669,17.669,0,0,0,9.68-3.729,12.6,12.6,0,0,0,4.6-7.652q.994-5.308-2.851-7.742m-6.853,7.431a3.7,3.7,0,0,1-1.194,1.968,3.815,3.815,0,0,1-2.151.905l-4.2.434,1.089-5.168,4.849-.451q2.089.087,1.607,2.311m1.741-13.271a3.214,3.214,0,0,1-2.638,2.6l-3.853.449,1.028-4.858,3.3-.341a2.433,2.433,0,0,1,1.755.375q.654.489.407,1.777M125.888,728.2,111.9,729.649l-7.547,36.162,9.954-1.028,2.387-11.4,3.214-.3,3.2,10.789,10-1.033-4.016-12.525a15.136,15.136,0,0,0,7.359-10.262q1.21-5.735-1.953-9.073t-8.613-2.777m.571,12.578a4.539,4.539,0,0,1-1.367,2.568,4.006,4.006,0,0,1-2.508,1.066l-4.106.422,1.406-6.715,4-.413a2.382,2.382,0,0,1,2.193.658,2.785,2.785,0,0,1,.382,2.411m34.881-16.187-4.756,22.931q-.8,4.027-5.127,4.475-4.221.436-3.422-3.6l4.755-22.92-9.953,1.026-4.993,24.067q-1.156,5.581,2.254,8.818t9.9,2.566a18.875,18.875,0,0,0,10.585-4.432,17.242,17.242,0,0,0,5.716-9.9l4.991-24.059Zm30.476,13.845L184.4,722.211l-8,.827-7.536,36.16,9.954-1.029,3.636-17.358,7.415,16.217,8-.826,7.43-36.149-9.953,1.028Zm30.352,6.155q-3.6.371-5.307-1.953a7.309,7.309,0,0,1-.972-5.991,12.309,12.309,0,0,1,3.633-6.541,10.742,10.742,0,0,1,6.442-3.092q4.451-.459,6.365,3.033l9.336-5.868q-4.126-8.267-14.428-7.2a23.046,23.046,0,0,0-13.717,6.472,24.888,24.888,0,0,0-7.562,13.721q-1.608,8.354,2.666,13.321t12.425,4.125a21.627,21.627,0,0,0,9.361-3.215,23.222,23.222,0,0,0,7.16-7.032l-8.1-4.471q-3.148,4.268-7.3,4.7M262.293,726.7l-8.553.883,2.667-12.81-9.95,1.026-7.527,36.16,9.953-1.028,2.774-13.326,8.553-.883-2.774,13.326,9.954-1.028,7.525-36.158-9.954,1.028Z" transform="translate(-73.593 -671.246)"/></g></g></g></g></g></g></svg>