<svg xmlns="http://www.w3.org/2000/svg" xmlns:xlink="http://www.w3.org/1999/xlink" width="99" height="18" viewBox="0 0 99 18"><defs><style>.a{fill:#ffba00;}.b{fill:url(#a);}</style><linearGradient id="a" x1="0.027" y1="0.392" x2="0.975" y2="0.385" gradientUnits="objectBoundingBox"><stop offset="0" stop-color="#ffba00"/><stop offset="0.498" stop-color="#ffba00"/><stop offset="0.505" stop-color="#ededed"/><stop offset="1" stop-color="#ededed"/></linearGradient></defs><g transform="translate(-41.5 -521)"><path class="a" d="M9.5,0l2.8,6.108,6.7.768-4.965,4.542L15.371,18,9.5,14.7,3.629,18l1.337-6.582L0,6.875l6.7-.768Z" transform="translate(41.5 521)"/><path class="a" d="M9.5,0l2.8,6.108,6.7.768-4.965,4.542L15.371,18,9.5,14.7,3.629,18l1.337-6.582L0,6.875l6.7-.768Z" transform="translate(61.5 521)"/><path class="a" d="M9.5,0l2.8,6.108,6.7.768-4.965,4.542L15.371,18,9.5,14.7,3.629,18l1.337-6.582L0,6.875l6.7-.768Z" transform="translate(81.5 521)"/><path class="a" d="M9.5,0l2.8,6.108,6.7.768-4.965,4.542L15.371,18,9.5,14.7,3.629,18l1.337-6.582L0,6.875l6.7-.768Z" transform="translate(101.5 521)"/><path class="b" d="M9.5,0l2.8,6.108,6.7.768-4.965,4.542L15.371,18,9.5,14.7,3.629,18l1.337-6.582L0,6.875l6.7-.768Z" transform="translate(121.5 521)"/></g></svg>