<svg xmlns="http://www.w3.org/2000/svg" xmlns:xlink="http://www.w3.org/1999/xlink" width="360.514" height="194.781" viewBox="0 0 360.514 194.781"><defs><style>.a{fill:none;}.b,.c,.d,.f{fill-rule:evenodd;}.b{opacity:0.5;}.c{fill:#e3493d;}.e{clip-path:url(#a);}.f{fill:#fff;}</style><clipPath id="a"><rect class="a" width="330.514" height="159.395"/></clipPath></defs><g transform="translate(-142.742 -349.187)"><path class="b" d="M94.212,135.232q-7.336.757-9.7-5.589l-14.377,8.817a15.7,15.7,0,0,0,7.3,9.915q5.525,3.259,14.818,2.3,9.942-1.028,16.342-5.973a22.138,22.138,0,0,0,8.179-13.532,19.651,19.651,0,0,0,.174-7.927,9,9,0,0,0-3.053-5.2,18.979,18.979,0,0,0-4.6-2.862,35.862,35.862,0,0,0-5.739-1.756,34.14,34.14,0,0,1-7.222-2.3,2.409,2.409,0,0,1-1.362-2.82q.763-3.044,5-3.483,5.625-.582,7.534,4.824l14.055-8.861a17.529,17.529,0,0,0-7.533-9.191q-5.089-2.935-12.427-2.176a27.008,27.008,0,0,0-15.091,6.244,23.337,23.337,0,0,0-7.965,13.264q-2.875,13.89,12.088,17.7,1.045.223,2.942.6t2.938.685c.695.2,1.445.455,2.245.756a3.337,3.337,0,0,1,1.663,1.147,2.2,2.2,0,0,1,.262,1.7q-.686,3.12-6.473,3.717m48.861,10.195a30.767,30.767,0,0,0,17.253-7.224,28.107,28.107,0,0,0,9.317-16.134l8.135-39.215-16.225,1.672L153.8,121.906q-1.309,6.565-8.357,7.293-6.88.71-5.578-5.868l7.749-37.361-16.223,1.675-8.138,39.227q-1.884,9.093,3.674,14.373t16.14,4.182m46.972-6.17,5.926-28.293L208.055,137.4l13.042-1.348,12.111-58.92L216.986,78.8l-5.757,28.293L199.145,80.648,186.1,82,173.82,140.936Zm63.745-6.584a36.1,36.1,0,0,0,21.894-10.05,40.517,40.517,0,0,0,11.763-21.44q2.576-12.458-3.821-20.532t-17.647-6.91l-23.64,2.441L230.063,135.12ZM256,90.757l6.522-.673q4.97-.512,7.446,2.81t1.283,9.136a19.514,19.514,0,0,1-5.239,9.809,14.505,14.505,0,0,1-8.938,4.507l-6.572.679Zm43.849,37.159,3.538-7.78,16.467-1.7.375,7.375,17.036-1.759L331.271,67,312.2,68.966l-30.366,60.807Zm18.31-40.2.966,17.614-9.457.973Zm29.865,35.229,16.219-1.676,5.213-25.523,25.436-35.316L375.816,62.4,363.646,81.122l-4.84-16.966-17.074,1.765L353.3,97.52ZM107.129,186.161A19.592,19.592,0,0,0,115.3,173.95q1.662-7.586-2.964-11.928t-13.918-3.383l-21.851,2.256L64.378,219.823l24.13-2.492q9.618-.993,15.777-6.078a20.539,20.539,0,0,0,7.49-12.471q1.621-8.652-4.647-12.62m-11.17,12.112a6.023,6.023,0,0,1-1.945,3.208,6.216,6.216,0,0,1-3.506,1.475l-6.847.707,1.775-8.422,7.9-.735q3.405.143,2.62,3.767M98.8,176.64a5.237,5.237,0,0,1-4.3,4.235l-6.28.731,1.676-7.918,5.381-.555a3.961,3.961,0,0,1,2.86.611q1.066.8.663,2.9m50.819-23.374-22.8,2.356-12.3,58.941,16.225-1.675,3.89-18.574,5.239-.494,5.217,17.586,16.3-1.684-6.546-20.414a24.67,24.67,0,0,0,12-16.727q1.972-9.348-3.182-14.789t-14.039-4.526m.93,20.5a7.4,7.4,0,0,1-2.228,4.186,6.536,6.536,0,0,1-4.088,1.738l-6.693.688,2.291-10.945,6.521-.673a3.883,3.883,0,0,1,3.574,1.073,4.538,4.538,0,0,1,.623,3.93M207.4,147.381l-7.752,37.376q-1.309,6.565-8.357,7.293-6.881.711-5.579-5.866l7.751-37.359L177.239,150.5,169.1,189.724q-1.884,9.1,3.674,14.373t16.14,4.182a30.769,30.769,0,0,0,17.254-7.223,28.109,28.109,0,0,0,9.317-16.134l8.135-39.215Zm49.675,22.567L244.99,143.5l-13.041,1.348-12.283,58.938,16.225-1.676,5.926-28.293L253.9,200.248l13.042-1.346,12.111-58.92-16.224,1.675Zm49.472,10.033q-5.869.6-8.65-3.185t-1.584-9.765a20.062,20.062,0,0,1,5.921-10.662,17.508,17.508,0,0,1,10.5-5.04q7.254-.749,10.374,4.944l15.216-9.563q-6.724-13.475-23.516-11.743a37.562,37.562,0,0,0-22.358,10.549,40.563,40.563,0,0,0-12.326,22.364Q277.5,181.5,284.47,189.594t20.252,6.723a35.255,35.255,0,0,0,15.257-5.241,37.846,37.846,0,0,0,11.671-11.463l-13.208-7.287q-5.131,6.957-11.9,7.655m65.4-29.165-13.94,1.439,4.347-20.88-16.218,1.672-12.269,58.938,16.224-1.675,4.521-21.72,13.94-1.439-4.52,21.72,16.223-1.675,12.266-58.936L376.3,129.935Z" transform="translate(93.364 309.145)"/><g transform="translate(149.756 349.187)"><g transform="translate(0 7.985)"><g transform="translate(0 0)"><path class="c" d="M75.9,153.541q-7.336.756-9.7-5.589l-14.377,8.817a15.7,15.7,0,0,0,7.3,9.915q5.525,3.259,14.818,2.3,9.941-1.027,16.342-5.972a22.14,22.14,0,0,0,8.179-13.532,19.643,19.643,0,0,0,.174-7.927,9,9,0,0,0-3.053-5.2,18.977,18.977,0,0,0-4.6-2.862,35.8,35.8,0,0,0-5.74-1.756,34.2,34.2,0,0,1-7.222-2.3,2.409,2.409,0,0,1-1.362-2.82q.763-3.044,5-3.483,5.625-.581,7.534,4.824l14.055-8.861a17.526,17.526,0,0,0-7.533-9.191q-5.088-2.935-12.427-2.176a27,27,0,0,0-15.091,6.244,23.334,23.334,0,0,0-7.966,13.264q-2.875,13.89,12.088,17.7,1.046.222,2.942.6t2.938.685q1.042.3,2.245.757a3.34,3.34,0,0,1,1.663,1.146,2.2,2.2,0,0,1,.261,1.7q-.686,3.119-6.473,3.717m48.861,10.195a30.767,30.767,0,0,0,17.254-7.224,28.1,28.1,0,0,0,9.317-16.133l8.135-39.215-16.225,1.671L135.5,140.214q-1.309,6.565-8.357,7.293-6.88.71-5.578-5.868l7.749-37.361-16.224,1.675-8.138,39.227q-1.884,9.093,3.674,14.372t16.14,4.182m46.972-6.17,5.926-28.293,12.087,26.434,13.042-1.348L214.9,95.437l-16.222,1.671L192.922,125.4,180.838,98.956,167.8,100.3l-12.284,58.941Zm63.745-6.584a36.1,36.1,0,0,0,21.894-10.05,40.523,40.523,0,0,0,11.763-21.44q2.576-12.458-3.821-20.532t-17.647-6.909l-23.64,2.441-12.273,58.937Zm2.212-41.916,6.522-.673q4.971-.512,7.447,2.81t1.283,9.136a19.517,19.517,0,0,1-5.239,9.809,14.507,14.507,0,0,1-8.938,4.507l-6.573.679Zm43.849,37.159,3.538-7.781,16.467-1.7.375,7.375,17.036-1.76-5.993-57.05-19.074,1.965-30.366,60.808Zm18.31-40.2.966,17.614-9.457.972Zm29.865,35.229,16.219-1.676,5.213-25.523,25.436-35.316-19.075,1.97L345.338,99.43,340.5,82.464l-17.074,1.765,11.568,31.6ZM88.822,204.469a19.59,19.59,0,0,0,8.171-12.211q1.662-7.586-2.964-11.928t-13.917-3.384L58.259,179.2,46.071,238.13,70.2,235.639q9.618-.993,15.777-6.078a20.54,20.54,0,0,0,7.49-12.472q1.621-8.651-4.647-12.62M77.65,216.581a6.024,6.024,0,0,1-1.945,3.207,6.219,6.219,0,0,1-3.507,1.475l-6.847.707,1.776-8.422,7.9-.735q3.4.143,2.619,3.767m2.839-21.631a5.238,5.238,0,0,1-4.3,4.235l-6.28.731L71.585,192l5.381-.556a3.964,3.964,0,0,1,2.86.611q1.065.8.663,2.9m50.819-23.374-22.8,2.356-12.3,58.941L112.43,231.2l3.89-18.574,5.239-.494,5.217,17.586,16.3-1.684-6.545-20.414a24.669,24.669,0,0,0,11.995-16.727q1.973-9.347-3.182-14.788t-14.039-4.526m.93,20.5a7.4,7.4,0,0,1-2.228,4.185A6.535,6.535,0,0,1,125.923,198l-6.693.688,2.291-10.944,6.521-.673a3.884,3.884,0,0,1,3.574,1.073,4.539,4.539,0,0,1,.624,3.93m56.854-26.383-7.752,37.376q-1.309,6.565-8.357,7.293-6.88.711-5.578-5.867l7.75-37.358L158.932,168.8l-8.138,39.227q-1.884,9.1,3.674,14.372t16.14,4.182a30.765,30.765,0,0,0,17.254-7.223,28.109,28.109,0,0,0,9.317-16.133l8.135-39.215Zm49.674,22.567-12.085-26.45-13.041,1.347-12.283,58.938,16.225-1.676,5.926-28.293L235.6,218.556l13.042-1.346,12.111-58.92-16.224,1.675Zm49.473,10.032q-5.869.605-8.651-3.184t-1.584-9.765a20.065,20.065,0,0,1,5.921-10.662,17.506,17.506,0,0,1,10.5-5.04q7.254-.749,10.374,4.944l15.217-9.564q-6.725-13.474-23.516-11.742a37.562,37.562,0,0,0-22.359,10.549,40.562,40.562,0,0,0-12.326,22.364Q259.2,199.8,266.162,207.9t20.252,6.722a35.247,35.247,0,0,0,15.258-5.241,37.839,37.839,0,0,0,11.671-11.462l-13.207-7.287q-5.131,6.957-11.9,7.655m65.4-29.165-13.94,1.439,4.348-20.88-16.219,1.671-12.268,58.938,16.223-1.675,4.521-21.721,13.94-1.439-4.52,21.721L361.95,205.5l12.265-58.936-16.225,1.675Z" transform="translate(-46.071 -78.737)"/></g></g><g transform="translate(3.957 4.028)"><g transform="translate(0 0)"><path class="d" d="M84.977,144.469q-7.335.756-9.7-5.589L60.9,147.7a15.7,15.7,0,0,0,7.3,9.915q5.525,3.26,14.818,2.3,9.941-1.027,16.342-5.973a22.14,22.14,0,0,0,8.179-13.532,19.643,19.643,0,0,0,.174-7.927,9,9,0,0,0-3.053-5.2,18.976,18.976,0,0,0-4.6-2.862,35.789,35.789,0,0,0-5.74-1.756,34.2,34.2,0,0,1-7.222-2.3,2.409,2.409,0,0,1-1.362-2.82q.763-3.044,5-3.483,5.625-.581,7.534,4.824l14.055-8.861a17.526,17.526,0,0,0-7.533-9.191Q99.71,97.891,92.371,98.65a27,27,0,0,0-15.091,6.244,23.334,23.334,0,0,0-7.966,13.264q-2.875,13.89,12.088,17.7,1.046.222,2.942.6t2.938.685q1.042.3,2.245.757a3.34,3.34,0,0,1,1.663,1.146,2.2,2.2,0,0,1,.261,1.7q-.686,3.119-6.473,3.717m48.861,10.195a30.767,30.767,0,0,0,17.254-7.224,28.1,28.1,0,0,0,9.317-16.133l8.135-39.215L152.32,93.763l-7.752,37.379q-1.308,6.565-8.357,7.293-6.88.71-5.578-5.868l7.749-37.361-16.224,1.675-8.138,39.227q-1.884,9.093,3.674,14.372t16.14,4.182m46.972-6.17,5.926-28.293,12.087,26.434,13.042-1.348,12.111-58.92-16.222,1.671-5.757,28.293L189.91,89.884l-13.041,1.347-12.284,58.941Zm63.745-6.584a36.1,36.1,0,0,0,21.894-10.05,40.52,40.52,0,0,0,11.763-21.44q2.576-12.458-3.821-20.532t-17.647-6.909L233.1,85.419l-12.273,58.937Zm2.212-41.916,6.522-.673q4.971-.512,7.447,2.81t1.283,9.136a19.517,19.517,0,0,1-5.239,9.809,14.507,14.507,0,0,1-8.938,4.507l-6.573.679Zm43.849,37.159,3.538-7.781,16.467-1.7.375,7.375,17.036-1.759-5.993-57.05L302.961,78.2,272.6,139.009Zm18.31-40.2.966,17.614-9.457.972Zm29.865,35.229,16.219-1.676,5.213-25.523,25.436-35.316-19.075,1.97L354.41,90.358l-4.84-16.966L332.5,75.157l11.568,31.6ZM97.894,195.4a19.59,19.59,0,0,0,8.171-12.211q1.662-7.586-2.964-11.928t-13.917-3.383l-21.852,2.256L55.143,229.058l24.129-2.492q9.618-.993,15.777-6.078a20.54,20.54,0,0,0,7.49-12.472q1.621-8.651-4.647-12.62M86.722,207.509a6.024,6.024,0,0,1-1.945,3.207,6.219,6.219,0,0,1-3.507,1.475l-6.847.707,1.776-8.422,7.9-.734q3.4.143,2.619,3.767m2.839-21.631a5.238,5.238,0,0,1-4.3,4.235l-6.28.731,1.676-7.918,5.38-.556a3.965,3.965,0,0,1,2.861.611q1.065.8.663,2.9M140.38,162.5l-22.8,2.356-12.3,58.941,16.225-1.675,3.89-18.574,5.239-.494,5.217,17.586,16.3-1.684-6.545-20.414A24.669,24.669,0,0,0,157.6,181.817q1.973-9.347-3.182-14.788T140.381,162.5m.93,20.5a7.4,7.4,0,0,1-2.228,4.185A6.535,6.535,0,0,1,135,188.927l-6.693.688,2.291-10.944,6.521-.673a3.884,3.884,0,0,1,3.574,1.073,4.539,4.539,0,0,1,.624,3.93m56.854-26.383-7.752,37.376q-1.308,6.565-8.357,7.293-6.88.711-5.578-5.867l7.75-37.358L168,159.733l-8.138,39.227q-1.884,9.1,3.674,14.372t16.14,4.182a30.765,30.765,0,0,0,17.254-7.223,28.109,28.109,0,0,0,9.317-16.133l8.135-39.215Zm49.674,22.567-12.085-26.45-13.041,1.347L210.43,213.02l16.225-1.676,5.926-28.293,12.087,26.434,13.042-1.346,12.111-58.92L253.6,150.892Zm49.472,10.032q-5.869.605-8.651-3.184t-1.584-9.765A20.065,20.065,0,0,1,293,165.606a17.506,17.506,0,0,1,10.5-5.04q7.254-.749,10.374,4.944l15.217-9.564q-6.725-13.474-23.516-11.742a37.562,37.562,0,0,0-22.359,10.549,40.562,40.562,0,0,0-12.326,22.364q-2.622,13.616,4.345,21.713t20.252,6.722a35.247,35.247,0,0,0,15.258-5.241,37.84,37.84,0,0,0,11.671-11.462l-13.207-7.287q-5.131,6.957-11.9,7.655m65.4-29.165-13.94,1.439,4.348-20.88L336.9,142.283l-12.268,58.938,16.223-1.675,4.521-21.721,13.94-1.439L354.8,198.107l16.224-1.675L383.287,137.5l-16.225,1.675Z" transform="translate(-55.143 -69.665)"/></g></g><g transform="translate(7.985 0)"><g class="e"><g transform="translate(0 0)"><path class="f" d="M94.212,135.232q-7.336.757-9.7-5.589l-14.377,8.817a15.7,15.7,0,0,0,7.3,9.915q5.525,3.259,14.818,2.3,9.942-1.028,16.342-5.973a22.138,22.138,0,0,0,8.179-13.532,19.651,19.651,0,0,0,.174-7.927,9,9,0,0,0-3.053-5.2,18.979,18.979,0,0,0-4.6-2.862,35.862,35.862,0,0,0-5.739-1.756,34.14,34.14,0,0,1-7.222-2.3,2.409,2.409,0,0,1-1.362-2.82q.763-3.044,5-3.483,5.625-.582,7.534,4.824l14.055-8.861a17.529,17.529,0,0,0-7.533-9.191q-5.089-2.935-12.427-2.176a27.008,27.008,0,0,0-15.091,6.244,23.337,23.337,0,0,0-7.965,13.264q-2.875,13.89,12.088,17.7,1.045.223,2.942.6t2.938.685c.695.2,1.445.455,2.245.756a3.337,3.337,0,0,1,1.663,1.147,2.2,2.2,0,0,1,.262,1.7q-.686,3.12-6.473,3.717m48.861,10.195a30.767,30.767,0,0,0,17.253-7.224,28.107,28.107,0,0,0,9.317-16.134l8.135-39.215-16.225,1.672L153.8,121.906q-1.309,6.565-8.357,7.293-6.88.71-5.578-5.868l7.749-37.361-16.223,1.675-8.138,39.227q-1.884,9.093,3.674,14.373t16.14,4.182m46.972-6.17,5.926-28.293L208.055,137.4l13.042-1.348,12.111-58.92L216.986,78.8l-5.757,28.293L199.145,80.648,186.1,82,173.82,140.936Zm63.745-6.584a36.1,36.1,0,0,0,21.894-10.05,40.517,40.517,0,0,0,11.763-21.44q2.576-12.458-3.821-20.532t-17.647-6.91l-23.64,2.441L230.063,135.12ZM256,90.757l6.522-.673q4.97-.512,7.446,2.81t1.283,9.136a19.514,19.514,0,0,1-5.239,9.809,14.505,14.505,0,0,1-8.938,4.507l-6.572.679Zm43.849,37.159,3.538-7.78,16.467-1.7.375,7.375,17.036-1.759L331.271,67,312.2,68.966l-30.366,60.807Zm18.31-40.2.966,17.614-9.457.973Zm29.865,35.229,16.219-1.676,5.213-25.523,25.436-35.316L375.816,62.4,363.646,81.122l-4.84-16.966-17.074,1.765L353.3,97.52ZM107.129,186.161A19.592,19.592,0,0,0,115.3,173.95q1.662-7.586-2.964-11.928t-13.918-3.383l-21.851,2.256L64.378,219.823l24.13-2.492q9.618-.993,15.777-6.078a20.539,20.539,0,0,0,7.49-12.471q1.621-8.652-4.647-12.62m-11.17,12.112a6.023,6.023,0,0,1-1.945,3.208,6.216,6.216,0,0,1-3.506,1.475l-6.847.707,1.775-8.422,7.9-.735q3.405.143,2.62,3.767M98.8,176.64a5.237,5.237,0,0,1-4.3,4.235l-6.28.731,1.676-7.918,5.381-.555a3.961,3.961,0,0,1,2.86.611q1.066.8.663,2.9m50.819-23.374-22.8,2.356-12.3,58.941,16.225-1.675,3.89-18.574,5.239-.494,5.217,17.586,16.3-1.684-6.546-20.414a24.67,24.67,0,0,0,12-16.727q1.972-9.348-3.182-14.789t-14.039-4.526m.93,20.5a7.4,7.4,0,0,1-2.228,4.186,6.536,6.536,0,0,1-4.088,1.738l-6.693.688,2.291-10.945,6.521-.673a3.883,3.883,0,0,1,3.574,1.073,4.538,4.538,0,0,1,.623,3.93M207.4,147.381l-7.752,37.376q-1.309,6.565-8.357,7.293-6.881.711-5.579-5.866l7.751-37.359L177.239,150.5,169.1,189.724q-1.884,9.1,3.674,14.373t16.14,4.182a30.769,30.769,0,0,0,17.254-7.223,28.109,28.109,0,0,0,9.317-16.134l8.135-39.215Zm49.675,22.567L244.99,143.5l-13.041,1.348-12.283,58.938,16.225-1.676,5.926-28.293L253.9,200.248l13.042-1.346,12.111-58.92-16.224,1.675Zm49.472,10.033q-5.869.6-8.65-3.185t-1.584-9.765a20.062,20.062,0,0,1,5.921-10.662,17.508,17.508,0,0,1,10.5-5.04q7.254-.749,10.374,4.944l15.216-9.563q-6.724-13.475-23.516-11.743a37.562,37.562,0,0,0-22.358,10.549,40.563,40.563,0,0,0-12.326,22.364Q277.5,181.5,284.47,189.594t20.252,6.723a35.255,35.255,0,0,0,15.257-5.241,37.846,37.846,0,0,0,11.671-11.463l-13.208-7.287q-5.131,6.957-11.9,7.655m65.4-29.165-13.94,1.439,4.347-20.88-16.218,1.672-12.269,58.938,16.224-1.675,4.521-21.72,13.94-1.439-4.52,21.72,16.223-1.675,12.266-58.936L376.3,129.935Z" transform="translate(-64.378 -60.429)"/></g></g></g></g></g></svg>